<svg xmlns="http://www.w3.org/2000/svg" xmlns:xlink="http://www.w3.org/1999/xlink" width="1080" zoomAndPan="magnify" viewBox="0 0 810 809.999993" height="1080" preserveAspectRatio="xMidYMid meet" version="1.0"><defs><clipPath id="ce8ca7db7c"><path d="M 343.726562 51.636719 L 428 51.636719 L 428 137.886719 L 343.726562 137.886719 Z M 343.726562 51.636719 " clip-rule="nonzero"/></clipPath><clipPath id="d1f71b309d"><path d="M 434 92 L 447.976562 92 L 447.976562 98 L 434 98 Z M 434 92 " clip-rule="nonzero"/></clipPath></defs><rect x="-81" width="972" fill="#ffffff" y="-80.999999" height="971.999992" fill-opacity="1"/><rect x="-81" width="972" fill="#ffffff" y="-80.999999" height="971.999992" fill-opacity="1"/><g clip-path="url(#ce8ca7db7c)"><path fill="#000000" d="M 420.679688 51.636719 C 420.246094 51.636719 419.816406 51.679688 419.390625 51.765625 C 418.964844 51.851562 418.550781 51.976562 418.148438 52.144531 C 417.75 52.3125 417.367188 52.515625 417.007812 52.757812 C 416.644531 53 416.3125 53.273438 416.003906 53.582031 C 415.695312 53.890625 415.421875 54.226562 415.179688 54.589844 C 414.941406 54.949219 414.734375 55.332031 414.570312 55.734375 C 414.402344 56.136719 414.277344 56.550781 414.191406 56.980469 C 414.105469 57.40625 414.0625 57.839844 414.0625 58.273438 L 414.0625 59.378906 C 406.996094 66.878906 397.4375 72.011719 390.566406 75.027344 C 382.125 78.734375 374.355469 80.671875 371.046875 80.671875 L 351.191406 80.671875 C 350.703125 80.671875 350.21875 80.71875 349.738281 80.816406 C 349.261719 80.910156 348.796875 81.054688 348.34375 81.242188 C 347.890625 81.429688 347.464844 81.660156 347.058594 81.933594 C 346.652344 82.203125 346.273438 82.511719 345.929688 82.859375 C 345.585938 83.207031 345.273438 83.582031 345.003906 83.992188 C 344.730469 84.398438 344.503906 84.828125 344.316406 85.28125 C 344.128906 85.734375 343.988281 86.199219 343.890625 86.679688 C 343.796875 87.160156 343.746094 87.648438 343.746094 88.136719 L 343.746094 101.410156 C 343.746094 101.898438 343.796875 102.382812 343.890625 102.863281 C 343.988281 103.34375 344.128906 103.8125 344.316406 104.265625 C 344.503906 104.71875 344.730469 105.148438 345.003906 105.554688 C 345.277344 105.960938 345.585938 106.339844 345.929688 106.6875 C 346.273438 107.03125 346.652344 107.339844 347.058594 107.613281 C 347.464844 107.886719 347.890625 108.117188 348.34375 108.304688 C 348.796875 108.492188 349.261719 108.632812 349.738281 108.730469 C 350.21875 108.824219 350.703125 108.875 351.191406 108.875 L 355.328125 108.875 L 355.328125 126.292969 C 355.328125 126.625 355.390625 126.941406 355.515625 127.246094 C 355.644531 127.550781 355.820312 127.820312 356.054688 128.054688 C 356.289062 128.289062 356.554688 128.46875 356.859375 128.59375 C 357.164062 128.71875 357.480469 128.785156 357.808594 128.785156 L 366.082031 128.785156 C 366.359375 128.785156 366.628906 128.738281 366.890625 128.648438 C 367.152344 128.558594 367.390625 128.425781 367.609375 128.257812 C 367.828125 128.085938 368.011719 127.882812 368.164062 127.652344 C 368.3125 127.417969 368.421875 127.167969 368.488281 126.898438 L 372.945312 109.023438 C 376.84375 109.535156 383.464844 111.402344 390.566406 114.519531 C 397.4375 117.535156 406.996094 122.667969 414.0625 130.167969 L 414.0625 131.273438 C 414.0625 131.707031 414.105469 132.140625 414.191406 132.566406 C 414.273438 132.992188 414.402344 133.410156 414.566406 133.8125 C 414.734375 134.214844 414.9375 134.597656 415.179688 134.957031 C 415.421875 135.320312 415.695312 135.65625 416 135.964844 C 416.308594 136.273438 416.644531 136.546875 417.003906 136.789062 C 417.367188 137.03125 417.746094 137.238281 418.148438 137.402344 C 418.550781 137.570312 418.964844 137.695312 419.390625 137.78125 C 419.816406 137.867188 420.246094 137.910156 420.679688 137.910156 C 421.117188 137.910156 421.546875 137.867188 421.972656 137.78125 C 422.398438 137.695312 422.8125 137.570312 423.214844 137.402344 C 423.617188 137.238281 423.996094 137.03125 424.359375 136.789062 C 424.71875 136.546875 425.054688 136.273438 425.359375 135.964844 C 425.667969 135.65625 425.941406 135.320312 426.183594 134.957031 C 426.425781 134.597656 426.628906 134.214844 426.796875 133.8125 C 426.960938 133.410156 427.085938 132.992188 427.171875 132.566406 C 427.257812 132.140625 427.300781 131.707031 427.300781 131.273438 L 427.300781 58.273438 C 427.300781 57.839844 427.257812 57.40625 427.171875 56.980469 C 427.085938 56.550781 426.960938 56.136719 426.792969 55.734375 C 426.628906 55.332031 426.421875 54.949219 426.183594 54.589844 C 425.941406 54.226562 425.667969 53.890625 425.359375 53.582031 C 425.050781 53.273438 424.71875 53 424.355469 52.757812 C 423.996094 52.515625 423.613281 52.3125 423.214844 52.144531 C 422.8125 51.976562 422.398438 51.851562 421.972656 51.765625 C 421.546875 51.679688 421.117188 51.636719 420.679688 51.636719 Z M 368.5625 103.898438 L 360.292969 103.898438 L 360.292969 85.648438 L 368.5625 85.648438 Z M 348.710938 101.410156 L 348.710938 88.136719 C 348.710938 87.808594 348.773438 87.488281 348.898438 87.183594 C 349.027344 86.878906 349.203125 86.609375 349.4375 86.378906 C 349.671875 86.144531 349.9375 85.964844 350.242188 85.839844 C 350.546875 85.710938 350.863281 85.648438 351.191406 85.648438 L 355.328125 85.648438 L 355.328125 103.898438 L 351.191406 103.898438 C 350.863281 103.898438 350.546875 103.832031 350.242188 103.707031 C 349.9375 103.582031 349.671875 103.402344 349.4375 103.167969 C 349.203125 102.933594 349.027344 102.664062 348.898438 102.359375 C 348.773438 102.054688 348.710938 101.738281 348.710938 101.410156 Z M 364.144531 123.804688 L 360.292969 123.804688 L 360.292969 108.875 L 367.867188 108.875 Z M 373.527344 104.089844 L 373.527344 85.457031 C 382.25 84.289062 401.019531 77.8125 414.0625 66.28125 L 414.0625 123.265625 C 401.019531 111.734375 382.25 105.253906 373.527344 104.089844 Z M 422.335938 131.273438 C 422.335938 131.492188 422.292969 131.703125 422.210938 131.90625 C 422.125 132.109375 422.007812 132.289062 421.851562 132.445312 C 421.695312 132.601562 421.515625 132.71875 421.316406 132.804688 C 421.113281 132.890625 420.902344 132.929688 420.679688 132.929688 C 420.460938 132.929688 420.25 132.890625 420.046875 132.804688 C 419.84375 132.71875 419.667969 132.601562 419.511719 132.445312 C 419.355469 132.289062 419.238281 132.109375 419.152344 131.90625 C 419.070312 131.703125 419.027344 131.492188 419.027344 131.273438 L 419.027344 58.273438 C 419.027344 58.054688 419.070312 57.84375 419.152344 57.640625 C 419.238281 57.4375 419.355469 57.257812 419.511719 57.101562 C 419.667969 56.945312 419.84375 56.824219 420.046875 56.742188 C 420.25 56.65625 420.460938 56.613281 420.679688 56.613281 C 420.902344 56.613281 421.113281 56.65625 421.316406 56.742188 C 421.515625 56.824219 421.695312 56.945312 421.851562 57.101562 C 422.007812 57.257812 422.125 57.4375 422.210938 57.640625 C 422.292969 57.84375 422.335938 58.054688 422.335938 58.273438 Z M 422.335938 131.273438 " fill-opacity="1" fill-rule="nonzero"/></g><g clip-path="url(#d1f71b309d)"><path fill="#000000" d="M 445.5 92.285156 L 437.226562 92.285156 C 436.898438 92.285156 436.582031 92.347656 436.277344 92.472656 C 435.972656 92.601562 435.703125 92.78125 435.472656 93.011719 C 435.238281 93.246094 435.058594 93.515625 434.933594 93.820312 C 434.808594 94.125 434.746094 94.441406 434.746094 94.773438 C 434.746094 95.101562 434.808594 95.421875 434.933594 95.726562 C 435.058594 96.03125 435.238281 96.300781 435.472656 96.53125 C 435.703125 96.765625 435.972656 96.945312 436.277344 97.070312 C 436.582031 97.199219 436.898438 97.261719 437.226562 97.261719 L 445.5 97.261719 C 445.828125 97.261719 446.144531 97.199219 446.449219 97.070312 C 446.753906 96.945312 447.019531 96.765625 447.253906 96.53125 C 447.488281 96.300781 447.667969 96.03125 447.792969 95.726562 C 447.917969 95.421875 447.980469 95.101562 447.980469 94.773438 C 447.980469 94.441406 447.917969 94.125 447.792969 93.820312 C 447.667969 93.515625 447.488281 93.246094 447.253906 93.011719 C 447.019531 92.78125 446.753906 92.601562 446.449219 92.472656 C 446.144531 92.347656 445.828125 92.285156 445.5 92.285156 Z M 445.5 92.285156 " fill-opacity="1" fill-rule="nonzero"/></g><path fill="#000000" d="M 433.144531 79.289062 C 433.519531 79.289062 433.878906 79.207031 434.21875 79.042969 L 441.671875 75.449219 C 441.96875 75.304688 442.226562 75.109375 442.445312 74.863281 C 442.667969 74.617188 442.832031 74.339844 442.941406 74.027344 C 443.046875 73.71875 443.09375 73.398438 443.074219 73.066406 C 443.058594 72.738281 442.976562 72.425781 442.835938 72.125 C 442.691406 71.828125 442.496094 71.570312 442.253906 71.351562 C 442.007812 71.128906 441.730469 70.964844 441.417969 70.855469 C 441.109375 70.746094 440.789062 70.703125 440.460938 70.71875 C 440.132812 70.738281 439.820312 70.820312 439.523438 70.960938 L 432.066406 74.558594 C 431.8125 74.679688 431.585938 74.839844 431.386719 75.039062 C 431.1875 75.238281 431.027344 75.464844 430.90625 75.71875 C 430.785156 75.972656 430.707031 76.242188 430.675781 76.519531 C 430.644531 76.800781 430.660156 77.078125 430.722656 77.355469 C 430.785156 77.628906 430.890625 77.886719 431.039062 78.125 C 431.191406 78.363281 431.375 78.570312 431.59375 78.746094 C 431.816406 78.921875 432.058594 79.058594 432.324219 79.148438 C 432.589844 79.242188 432.863281 79.289062 433.144531 79.289062 Z M 433.144531 79.289062 " fill-opacity="1" fill-rule="nonzero"/><path fill="#000000" d="M 441.671875 114.097656 L 434.21875 110.503906 C 433.921875 110.363281 433.609375 110.285156 433.28125 110.269531 C 432.957031 110.25 432.636719 110.296875 432.328125 110.40625 C 432.019531 110.515625 431.742188 110.683594 431.5 110.902344 C 431.253906 111.121094 431.0625 111.378906 430.921875 111.675781 C 430.777344 111.972656 430.699219 112.28125 430.679688 112.609375 C 430.660156 112.9375 430.707031 113.257812 430.8125 113.570312 C 430.921875 113.878906 431.082031 114.15625 431.300781 114.402344 C 431.515625 114.648438 431.773438 114.84375 432.066406 114.988281 L 439.523438 118.582031 C 439.820312 118.726562 440.132812 118.808594 440.460938 118.824219 C 440.789062 118.84375 441.109375 118.796875 441.417969 118.6875 C 441.730469 118.578125 442.007812 118.414062 442.253906 118.195312 C 442.496094 117.976562 442.691406 117.714844 442.835938 117.417969 C 442.976562 117.121094 443.058594 116.808594 443.074219 116.480469 C 443.09375 116.148438 443.046875 115.828125 442.941406 115.515625 C 442.832031 115.207031 442.667969 114.925781 442.445312 114.679688 C 442.226562 114.433594 441.96875 114.242188 441.671875 114.097656 Z M 441.671875 114.097656 " fill-opacity="1" fill-rule="nonzero"/></svg>