<svg xmlns="http://www.w3.org/2000/svg" xmlns:xlink="http://www.w3.org/1999/xlink" width="1080" zoomAndPan="magnify" viewBox="0 0 810 809.999993" height="1080" preserveAspectRatio="xMidYMid meet" version="1.0"><defs><clipPath id="541d99f1cc"><path d="M 352.855469 137.699219 L 439.105469 137.699219 L 439.105469 223.949219 L 352.855469 223.949219 Z M 352.855469 137.699219 " clip-rule="nonzero"/></clipPath></defs><rect x="-81" width="972" fill="#ffffff" y="-80.999999" height="971.999992" fill-opacity="1"/><rect x="-81" width="972" fill="#ffffff" y="-80.999999" height="971.999992" fill-opacity="1"/><g clip-path="url(#541d99f1cc)"><path fill="#000000" d="M 418.230469 172.570312 L 433.164062 160.445312 C 433.585938 160.101562 434.203125 160.167969 434.546875 160.585938 C 434.691406 160.765625 434.769531 160.988281 434.769531 161.207031 L 434.769531 220.039062 C 434.769531 221.058594 434.351562 221.984375 433.679688 222.652344 C 433.011719 223.328125 432.085938 223.742188 431.066406 223.742188 L 421.503906 223.742188 C 420.484375 223.742188 419.558594 223.328125 418.882812 222.652344 C 418.21875 221.984375 417.800781 221.058594 417.800781 220.039062 L 417.800781 173.382812 C 417.800781 173.042969 417.972656 172.746094 418.230469 172.570312 Z M 424.367188 139.671875 C 423.820312 139.671875 423.378906 139.230469 423.378906 138.6875 C 423.378906 138.140625 423.820312 137.699219 424.367188 137.699219 L 438.042969 137.699219 C 438.589844 137.699219 439.03125 138.140625 439.03125 138.6875 L 439.03125 152.363281 C 439.03125 152.910156 438.589844 153.351562 438.042969 153.351562 C 437.5 153.351562 437.058594 152.910156 437.058594 152.363281 L 437.058594 141.066406 L 411.488281 166.640625 C 411.101562 167.023438 410.480469 167.023438 410.089844 166.640625 L 401.714844 158.261719 L 383.546875 176.4375 C 383.15625 176.820312 382.535156 176.820312 382.148438 176.4375 L 373.902344 168.191406 L 354.542969 187.554688 C 354.152344 187.9375 353.53125 187.9375 353.144531 187.554688 C 352.761719 187.171875 352.761719 186.546875 353.144531 186.164062 L 373.210938 166.097656 C 373.59375 165.714844 374.21875 165.714844 374.601562 166.097656 L 382.847656 174.347656 L 401.019531 156.171875 C 401.40625 155.789062 402.03125 155.789062 402.414062 156.171875 L 410.789062 164.542969 L 435.664062 139.671875 Z M 432.796875 163.277344 L 419.773438 173.847656 L 419.773438 220.039062 C 419.773438 220.511719 419.96875 220.945312 420.28125 221.261719 C 420.597656 221.578125 421.03125 221.773438 421.503906 221.773438 L 431.066406 221.773438 C 431.539062 221.773438 431.972656 221.578125 432.289062 221.261719 C 432.601562 220.945312 432.796875 220.511719 432.796875 220.039062 Z M 357.496094 198.09375 L 372.453125 185.691406 C 372.875 185.34375 373.492188 185.410156 373.839844 185.824219 C 373.996094 186.007812 374.066406 186.234375 374.066406 186.453125 L 374.074219 186.453125 L 374.074219 220.039062 C 374.074219 221.058594 373.652344 221.984375 372.984375 222.652344 C 372.308594 223.328125 371.382812 223.742188 370.363281 223.742188 L 360.808594 223.742188 C 359.789062 223.742188 358.855469 223.328125 358.1875 222.652344 C 357.515625 221.984375 357.097656 221.058594 357.097656 220.039062 L 357.097656 198.886719 C 357.097656 198.566406 357.257812 198.277344 357.496094 198.09375 Z M 372.09375 188.550781 L 359.078125 199.347656 L 359.078125 220.039062 C 359.078125 220.511719 359.265625 220.945312 359.578125 221.261719 C 359.894531 221.578125 360.328125 221.773438 360.808594 221.773438 L 370.363281 221.773438 C 370.84375 221.773438 371.269531 221.578125 371.585938 221.261719 C 371.902344 220.945312 372.09375 220.511719 372.09375 220.039062 Z M 394.023438 179.214844 L 394.300781 220.039062 C 394.300781 221.058594 393.886719 221.984375 393.21875 222.652344 C 392.542969 223.328125 391.617188 223.742188 390.597656 223.742188 L 381.035156 223.742188 C 380.015625 223.742188 379.089844 223.328125 378.421875 222.652344 C 377.75 221.984375 377.332031 221.058594 377.332031 220.039062 L 377.332031 186.769531 C 377.332031 186.359375 377.578125 186.007812 377.933594 185.855469 L 392.589844 178.292969 C 393.074219 178.042969 393.664062 178.230469 393.917969 178.714844 C 394 178.875 394.03125 179.050781 394.023438 179.214844 Z M 392.335938 220.039062 L 392.066406 180.773438 L 379.304688 187.367188 L 379.304688 220.039062 C 379.304688 220.511719 379.5 220.945312 379.8125 221.261719 C 380.128906 221.578125 380.5625 221.773438 381.035156 221.773438 L 390.597656 221.773438 C 391.070312 221.773438 391.503906 221.578125 391.820312 221.261719 C 392.132812 220.945312 392.328125 220.511719 392.328125 220.039062 Z M 414.113281 172.074219 L 414.535156 220.039062 C 414.535156 221.058594 414.117188 221.984375 413.453125 222.652344 C 412.777344 223.328125 411.851562 223.742188 410.832031 223.742188 L 401.269531 223.742188 C 400.25 223.742188 399.324219 223.328125 398.652344 222.652344 C 397.984375 221.984375 397.566406 221.058594 397.566406 220.039062 L 397.566406 175.355469 C 397.566406 174.863281 397.933594 174.449219 398.410156 174.378906 L 412.917969 171.074219 C 413.445312 170.960938 413.96875 171.289062 414.085938 171.824219 C 414.105469 171.902344 414.113281 171.984375 414.113281 172.074219 Z M 412.5625 220.039062 L 412.15625 173.265625 L 399.539062 176.140625 L 399.539062 220.039062 C 399.539062 220.511719 399.734375 220.945312 400.046875 221.261719 C 400.363281 221.578125 400.796875 221.773438 401.269531 221.773438 L 410.832031 221.773438 C 411.304688 221.773438 411.738281 221.578125 412.054688 221.261719 C 412.367188 220.945312 412.5625 220.511719 412.5625 220.039062 Z M 412.5625 220.039062 " fill-opacity="1" fill-rule="nonzero"/></g></svg>