<svg xmlns="http://www.w3.org/2000/svg" xmlns:xlink="http://www.w3.org/1999/xlink" width="1080" zoomAndPan="magnify" viewBox="0 0 810 809.999993" height="1080" preserveAspectRatio="xMidYMid meet" version="1.0"><defs><clipPath id="a25fea9d91"><path d="M 343.332031 223.761719 L 448.332031 223.761719 L 448.332031 310 L 343.332031 310 Z M 343.332031 223.761719 " clip-rule="nonzero"/></clipPath></defs><rect x="-81" width="972" fill="#ffffff" y="-80.999999" height="971.999992" fill-opacity="1"/><rect x="-81" width="972" fill="#ffffff" y="-80.999999" height="971.999992" fill-opacity="1"/><g clip-path="url(#a25fea9d91)"><path fill="#000000" d="M 401.042969 247.480469 C 400.769531 247.230469 400.597656 246.871094 400.597656 246.46875 L 400.597656 241.769531 C 400.597656 239.96875 398.503906 238.449219 396.019531 238.449219 L 395.296875 238.449219 C 392.816406 238.449219 390.71875 239.96875 390.71875 241.769531 L 390.71875 246.46875 C 390.71875 246.871094 390.546875 247.230469 390.273438 247.480469 C 391.90625 248.269531 393.734375 248.710938 395.660156 248.710938 C 397.585938 248.710938 399.410156 248.269531 401.042969 247.480469 Z M 405.148438 252.71875 L 424.140625 280.785156 C 424.40625 281.175781 424.839844 281.386719 425.277344 281.386719 C 425.542969 281.386719 425.8125 281.3125 426.046875 281.152344 C 426.679688 280.722656 426.84375 279.863281 426.414062 279.234375 L 407.425781 251.171875 C 407 250.539062 406.144531 250.375 405.515625 250.804688 C 404.886719 251.230469 404.722656 252.089844 405.148438 252.71875 Z M 383.894531 251.171875 L 365.027344 279.050781 C 364.601562 279.683594 364.761719 280.539062 365.394531 280.96875 C 365.628906 281.128906 365.898438 281.207031 366.164062 281.207031 C 366.605469 281.207031 367.039062 280.992188 367.304688 280.597656 L 386.167969 252.71875 C 386.59375 252.089844 386.429688 251.230469 385.800781 250.804688 C 385.175781 250.375 384.320312 250.539062 383.894531 251.171875 Z M 433.492188 289.285156 C 433.492188 290.621094 434.574219 291.707031 435.90625 291.707031 C 437.238281 291.707031 438.320312 290.621094 438.320312 289.285156 C 438.320312 287.953125 437.238281 286.867188 435.90625 286.867188 C 434.574219 286.867188 433.492188 287.953125 433.492188 289.285156 Z M 428.214844 301.246094 L 428.214844 305.503906 C 425.328125 303.21875 423.472656 299.679688 423.472656 295.714844 C 423.472656 288.835938 429.050781 283.246094 435.90625 283.246094 C 442.761719 283.246094 448.339844 288.835938 448.339844 295.714844 C 448.339844 299.679688 446.480469 303.21875 443.597656 305.503906 L 443.597656 301.246094 C 443.597656 297.894531 440.308594 295.167969 436.265625 295.167969 L 435.542969 295.167969 C 431.503906 295.167969 428.214844 297.894531 428.214844 301.246094 Z M 435.90625 294.46875 C 433.058594 294.46875 430.742188 292.144531 430.742188 289.285156 C 430.742188 286.429688 433.058594 284.105469 435.90625 284.105469 C 438.753906 284.105469 441.070312 286.429688 441.070312 289.285156 C 441.070312 292.144531 438.753906 294.46875 435.90625 294.46875 Z M 430.964844 301.246094 L 430.964844 305.945312 C 430.964844 306.347656 430.792969 306.707031 430.523438 306.957031 C 432.152344 307.746094 433.980469 308.1875 435.90625 308.1875 C 437.832031 308.1875 439.660156 307.746094 441.289062 306.957031 C 441.015625 306.707031 440.84375 306.347656 440.84375 305.945312 L 440.84375 301.246094 C 440.84375 299.445312 438.75 297.925781 436.265625 297.925781 L 435.542969 297.925781 C 433.0625 297.925781 430.964844 299.445312 430.964844 301.246094 Z M 360.9375 289.261719 C 360.9375 292.117188 358.621094 294.441406 355.773438 294.441406 C 352.925781 294.441406 350.609375 292.117188 350.609375 289.261719 C 350.609375 286.40625 352.925781 284.082031 355.773438 284.082031 C 358.621094 284.082031 360.9375 286.40625 360.9375 289.261719 Z M 368.207031 295.691406 C 368.207031 288.816406 362.628906 283.21875 355.773438 283.21875 C 348.917969 283.21875 343.339844 288.816406 343.339844 295.691406 C 343.339844 299.660156 345.195312 303.195312 348.082031 305.480469 L 348.082031 301.222656 C 348.082031 297.871094 351.371094 295.140625 355.410156 295.140625 L 356.132812 295.140625 C 360.175781 295.140625 363.464844 297.871094 363.464844 301.222656 L 363.464844 305.480469 C 366.351562 303.195312 368.207031 299.660156 368.207031 295.691406 Z M 355.773438 291.683594 C 357.105469 291.683594 358.1875 290.597656 358.1875 289.261719 C 358.1875 287.925781 357.105469 286.839844 355.773438 286.839844 C 354.441406 286.839844 353.359375 287.925781 353.359375 289.261719 C 353.359375 290.597656 354.441406 291.683594 355.773438 291.683594 Z M 360.710938 301.222656 L 360.710938 305.921875 C 360.710938 306.324219 360.882812 306.683594 361.15625 306.933594 C 359.527344 307.722656 357.699219 308.164062 355.773438 308.164062 C 353.847656 308.164062 352.019531 307.722656 350.390625 306.933594 C 350.660156 306.683594 350.832031 306.324219 350.832031 305.921875 L 350.832031 301.222656 C 350.832031 299.421875 352.929688 297.902344 355.410156 297.902344 L 356.132812 297.902344 C 358.617188 297.902344 360.710938 299.421875 360.710938 301.222656 Z M 381.070312 282.4375 L 378.292969 282.4375 L 378.292969 280.304688 L 381.070312 280.304688 Z M 393.542969 293.683594 L 398.175781 287.929688 L 393.90625 287.253906 C 393.238281 287.148438 392.746094 286.574219 392.742188 285.894531 L 392.738281 282.675781 L 388.355469 288.121094 L 392.628906 288.792969 C 393.332031 288.90625 393.839844 289.539062 393.785156 290.253906 Z M 409.347656 285.199219 C 409.355469 285.691406 409.363281 286.179688 409.367188 286.667969 C 409.398438 289.195312 409.433594 291.804688 409.433594 294.367188 C 409.433594 302.980469 402.449219 309.988281 393.863281 309.988281 C 385.277344 309.988281 378.292969 302.980469 378.292969 294.367188 L 378.292969 285.199219 L 381.070312 285.199219 L 381.070312 294.367188 C 381.070312 301.371094 386.808594 307.066406 393.863281 307.066406 C 400.84375 307.066406 406.523438 301.371094 406.523438 294.367188 L 406.523438 285.199219 Z M 409.304688 280.304688 C 409.308594 281.015625 409.316406 281.726562 409.320312 282.4375 L 406.523438 282.4375 L 406.523438 280.304688 Z M 395.660156 232.230469 C 396.992188 232.230469 398.074219 231.144531 398.074219 229.808594 C 398.074219 228.476562 396.992188 227.386719 395.660156 227.386719 C 394.328125 227.386719 393.246094 228.476562 393.246094 229.808594 C 393.246094 231.144531 394.328125 232.230469 395.660156 232.230469 Z M 396.019531 235.691406 L 395.296875 235.691406 C 391.257812 235.691406 387.964844 238.417969 387.964844 241.769531 L 387.964844 246.027344 C 385.082031 243.742188 383.226562 240.203125 383.226562 236.238281 C 383.226562 229.359375 388.804688 223.765625 395.660156 223.765625 C 402.515625 223.765625 408.09375 229.359375 408.09375 236.238281 C 408.09375 240.203125 406.234375 243.742188 403.351562 246.027344 L 403.351562 241.769531 C 403.351562 238.417969 400.0625 235.691406 396.019531 235.691406 Z M 400.824219 229.808594 C 400.824219 232.664062 398.503906 234.992188 395.660156 234.992188 C 392.8125 234.992188 390.496094 232.664062 390.496094 229.808594 C 390.496094 226.953125 392.8125 224.628906 395.660156 224.628906 C 398.503906 224.628906 400.824219 226.953125 400.824219 229.808594 Z M 400.824219 229.808594 " fill-opacity="1" fill-rule="evenodd"/></g></svg>