<svg xmlns="http://www.w3.org/2000/svg" xmlns:xlink="http://www.w3.org/1999/xlink" width="1080" zoomAndPan="magnify" viewBox="0 0 810 809.999993" height="1080" preserveAspectRatio="xMidYMid meet" version="1.0"><defs><clipPath id="3a0cf29b54"><path d="M 352.855469 327 L 391 327 L 391 396.074219 L 352.855469 396.074219 Z M 352.855469 327 " clip-rule="nonzero"/></clipPath><clipPath id="e267e6e2f0"><path d="M 401 327 L 439.105469 327 L 439.105469 396.074219 L 401 396.074219 Z M 401 327 " clip-rule="nonzero"/></clipPath><clipPath id="91b8a090fc"><path d="M 371 309.824219 L 421 309.824219 L 421 365 L 371 365 Z M 371 309.824219 " clip-rule="nonzero"/></clipPath></defs><rect x="-81" width="972" fill="#ffffff" y="-80.999999" height="971.999992" fill-opacity="1"/><rect x="-81" width="972" fill="#ffffff" y="-80.999999" height="971.999992" fill-opacity="1"/><g clip-path="url(#3a0cf29b54)"><path fill="#100f0d" d="M 367.230469 389.257812 L 367.230469 396.074219 L 370.105469 396.074219 L 370.105469 388.886719 C 370.105469 388.644531 370.042969 388.40625 369.925781 388.191406 L 357 364.921875 C 356.167969 363.429688 355.730469 361.738281 355.730469 360.03125 L 355.730469 332.824219 C 355.730469 331.242188 357.023438 329.949219 358.605469 329.949219 C 360.191406 329.949219 361.480469 331.242188 361.480469 332.824219 L 361.480469 353.457031 C 359.703125 355.539062 359.703125 358.632812 361.578125 360.695312 L 373.359375 373.648438 L 375.480469 371.710938 L 363.703125 358.757812 C 362.765625 357.722656 362.800781 356.140625 363.789062 355.152344 C 364.304688 354.640625 364.996094 354.382812 365.710938 354.386719 C 366.433594 354.410156 367.097656 354.714844 367.578125 355.253906 L 377.664062 366.453125 C 377.765625 366.566406 377.960938 366.707031 378.097656 366.785156 C 383.808594 370.046875 387.355469 376.164062 387.355469 382.746094 L 387.355469 396.074219 L 390.230469 396.074219 L 390.230469 381.699219 L 390.199219 381.699219 C 389.84375 374.574219 385.914062 368.039062 379.648438 364.367188 L 369.71875 353.332031 C 368.703125 352.199219 367.304688 351.558594 365.78125 351.511719 C 365.289062 351.5 364.816406 351.574219 364.355469 351.679688 L 364.355469 332.824219 C 364.355469 329.652344 361.777344 327.074219 358.605469 327.074219 C 355.433594 327.074219 352.855469 329.652344 352.855469 332.824219 L 352.855469 360.03125 C 352.855469 362.226562 353.417969 364.398438 354.484375 366.3125 L 367.230469 389.257812 " fill-opacity="1" fill-rule="nonzero"/></g><g clip-path="url(#e267e6e2f0)"><path fill="#100f0d" d="M 433.355469 327.074219 C 430.183594 327.074219 427.605469 329.652344 427.605469 332.824219 L 427.605469 351.679688 C 427.144531 351.574219 426.667969 351.5 426.179688 351.511719 C 424.660156 351.558594 423.261719 352.199219 422.242188 353.332031 L 412.316406 364.359375 C 406.089844 367.976562 402.117188 374.539062 401.765625 381.699219 L 401.730469 381.699219 L 401.730469 396.074219 L 404.605469 396.074219 L 404.605469 382.746094 C 404.605469 376.164062 408.15625 370.046875 413.933594 366.746094 C 414.066406 366.667969 414.191406 366.574219 414.296875 366.453125 L 424.382812 355.253906 C 424.867188 354.714844 425.527344 354.410156 426.253906 354.386719 C 426.996094 354.386719 427.65625 354.640625 428.171875 355.152344 C 429.160156 356.140625 429.195312 357.722656 428.257812 358.757812 L 416.484375 371.710938 L 418.605469 373.648438 L 430.386719 360.695312 C 432.261719 358.632812 432.261719 355.539062 430.480469 353.457031 L 430.480469 332.824219 C 430.480469 331.242188 431.773438 329.949219 433.355469 329.949219 C 434.941406 329.949219 436.230469 331.242188 436.230469 332.824219 L 436.230469 359.878906 C 436.230469 361.675781 435.75 363.4375 434.820312 365.015625 L 422.035156 388.191406 C 421.917969 388.40625 421.855469 388.644531 421.855469 388.886719 L 421.855469 396.074219 L 424.730469 396.074219 L 424.730469 389.257812 L 437.320312 366.445312 C 438.488281 364.457031 439.105469 362.1875 439.105469 359.878906 L 439.105469 332.824219 C 439.105469 329.652344 436.527344 327.074219 433.355469 327.074219 " fill-opacity="1" fill-rule="nonzero"/></g><g clip-path="url(#91b8a090fc)"><path fill="#100f0d" d="M 417.542969 348.875 L 397.417969 360.519531 L 397.417969 337.980469 L 417.542969 326.660156 Z M 395.980469 335.488281 L 386.773438 330.308594 L 406.839844 319.023438 L 416.050781 324.199219 Z M 394.542969 360.519531 L 374.417969 348.875 L 374.417969 326.660156 L 394.542969 337.980469 Z M 395.980469 312.914062 L 403.910156 317.371094 L 383.839844 328.660156 L 375.914062 324.199219 Z M 420.417969 349.703125 L 420.417969 324.199219 C 420.417969 324.070312 420.402344 323.949219 420.367188 323.824219 C 420.355469 323.785156 420.335938 323.746094 420.316406 323.707031 C 420.289062 323.628906 420.265625 323.546875 420.222656 323.480469 C 420.199219 323.4375 420.167969 323.410156 420.136719 323.367188 C 420.09375 323.308594 420.054688 323.238281 419.996094 323.183594 C 419.964844 323.15625 419.925781 323.132812 419.890625 323.097656 C 419.828125 323.054688 419.773438 323 419.707031 322.960938 C 419.707031 322.960938 419.699219 322.960938 419.695312 322.953125 C 419.6875 322.953125 419.6875 322.949219 419.683594 322.949219 L 396.683594 310.011719 C 396.246094 309.761719 395.71875 309.761719 395.28125 310.011719 L 372.28125 322.949219 C 372.273438 322.949219 372.273438 322.953125 372.269531 322.953125 C 372.269531 322.960938 372.257812 322.960938 372.257812 322.960938 C 372.191406 323 372.132812 323.054688 372.070312 323.097656 C 372.039062 323.132812 372 323.15625 371.964844 323.183594 C 371.910156 323.238281 371.871094 323.308594 371.824219 323.367188 C 371.796875 323.410156 371.761719 323.4375 371.742188 323.480469 C 371.695312 323.546875 371.671875 323.628906 371.644531 323.707031 C 371.628906 323.746094 371.605469 323.785156 371.59375 323.824219 C 371.5625 323.949219 371.542969 324.070312 371.542969 324.199219 L 371.542969 349.703125 C 371.542969 350.222656 371.820312 350.691406 372.261719 350.949219 L 395.261719 364.253906 C 395.261719 364.253906 395.261719 364.257812 395.261719 364.257812 C 395.347656 364.308594 395.441406 364.335938 395.539062 364.371094 C 395.558594 364.378906 395.582031 364.394531 395.609375 364.40625 C 395.734375 364.433594 395.859375 364.449219 395.980469 364.449219 C 396.105469 364.449219 396.226562 364.433594 396.351562 364.40625 C 396.378906 364.394531 396.402344 364.378906 396.425781 364.371094 C 396.519531 364.335938 396.617188 364.308594 396.699219 364.257812 C 396.699219 364.257812 396.699219 364.253906 396.699219 364.253906 L 419.699219 350.949219 C 420.144531 350.691406 420.417969 350.222656 420.417969 349.703125 " fill-opacity="1" fill-rule="nonzero"/></g><path fill="#100f0d" d="M 414.667969 345.761719 L 411.792969 345.761719 L 411.792969 348.636719 L 414.667969 348.636719 L 414.667969 345.761719 " fill-opacity="1" fill-rule="nonzero"/><path fill="#100f0d" d="M 408.917969 348.636719 L 406.042969 348.636719 L 406.042969 351.511719 L 408.917969 351.511719 L 408.917969 348.636719 " fill-opacity="1" fill-rule="nonzero"/><path fill="#100f0d" d="M 403.167969 351.511719 L 400.292969 351.511719 L 400.292969 354.386719 L 403.167969 354.386719 L 403.167969 351.511719 " fill-opacity="1" fill-rule="nonzero"/></svg>