<svg xmlns="http://www.w3.org/2000/svg" xmlns:xlink="http://www.w3.org/1999/xlink" width="1080" zoomAndPan="magnify" viewBox="0 0 810 809.999993" height="1080" preserveAspectRatio="xMidYMid meet" version="1.0"><defs><clipPath id="5049501a41"><path d="M 352.855469 421 L 414 421 L 414 482.136719 L 352.855469 482.136719 Z M 352.855469 421 " clip-rule="nonzero"/></clipPath><clipPath id="3eb9cefb4e"><path d="M 384 395.886719 L 417 395.886719 L 417 428 L 384 428 Z M 384 395.886719 " clip-rule="nonzero"/></clipPath><clipPath id="d2e7d41cd1"><path d="M 410 426 L 439.105469 426 L 439.105469 455 L 410 455 Z M 410 426 " clip-rule="nonzero"/></clipPath></defs><rect x="-81" width="972" fill="#ffffff" y="-80.999999" height="971.999992" fill-opacity="1"/><rect x="-81" width="972" fill="#ffffff" y="-80.999999" height="971.999992" fill-opacity="1"/><g clip-path="url(#5049501a41)"><path fill="#000000" d="M 412.8125 455.039062 L 403.140625 445.367188 C 403.054688 445.28125 402.9375 445.222656 402.824219 445.164062 C 402.378906 444.90625 401.859375 444.90625 401.414062 445.164062 C 401.300781 445.222656 401.199219 445.28125 401.097656 445.367188 L 395.0625 451.402344 L 383.203125 463.25 C 381.664062 464.785156 379.636719 465.621094 377.464844 465.621094 C 375.296875 465.621094 373.269531 464.773438 371.730469 463.25 C 370.191406 461.710938 369.359375 459.683594 369.359375 457.511719 C 369.359375 455.34375 370.207031 453.316406 371.730469 451.777344 L 383.015625 440.492188 C 383.015625 440.492188 383.042969 440.492188 383.042969 440.480469 L 389.613281 433.910156 C 389.886719 433.636719 390.03125 433.277344 390.03125 432.890625 C 390.03125 432.5 389.871094 432.140625 389.613281 431.867188 L 379.925781 422.179688 C 379.652344 421.90625 379.277344 421.777344 378.902344 421.777344 C 378.53125 421.777344 378.15625 421.90625 377.882812 422.179688 L 360.058594 440.003906 C 355.402344 444.660156 352.828125 450.859375 352.828125 457.457031 C 352.828125 464.054688 355.402344 470.25 360.058594 474.90625 C 364.714844 479.5625 370.910156 482.136719 377.507812 482.136719 C 384.109375 482.136719 390.304688 479.5625 394.960938 474.90625 L 412.785156 457.082031 C 413.058594 456.808594 413.203125 456.449219 413.203125 456.0625 C 413.203125 455.671875 413.042969 455.3125 412.785156 455.039062 Z M 402.121094 448.414062 L 409.753906 456.046875 L 405.222656 460.574219 L 397.578125 452.925781 L 402.121094 448.398438 Z M 378.933594 425.226562 L 386.578125 432.875 L 382.050781 437.402344 L 374.40625 429.753906 Z M 392.949219 472.867188 C 388.835938 476.976562 383.359375 479.25 377.539062 479.25 C 371.714844 479.25 366.238281 476.976562 362.128906 472.867188 C 353.632812 464.371094 353.632812 450.527344 362.128906 442.03125 L 372.378906 431.78125 L 380.023438 439.429688 L 369.71875 449.722656 C 367.648438 451.792969 366.5 454.550781 366.5 457.484375 C 366.5 460.417969 367.632812 463.175781 369.71875 465.246094 C 371.789062 467.316406 374.546875 468.46875 377.480469 468.46875 C 380.414062 468.46875 383.171875 467.332031 385.242188 465.246094 L 395.535156 454.953125 L 403.183594 462.601562 L 392.933594 472.851562 Z M 392.949219 472.867188 " fill-opacity="1" fill-rule="nonzero"/></g><g clip-path="url(#3eb9cefb4e)"><path fill="#000000" d="M 400.292969 427.511719 C 400.882812 427.511719 401.472656 427.46875 402.0625 427.398438 C 405.484375 427.023438 408.660156 425.542969 411.160156 423.15625 C 414.296875 420.195312 416.09375 416.027344 416.09375 411.714844 C 416.09375 402.988281 409.003906 395.902344 400.28125 395.902344 C 391.554688 395.902344 384.46875 402.988281 384.46875 411.714844 C 384.46875 416.042969 386.265625 420.222656 389.398438 423.171875 C 392.328125 425.988281 396.195312 427.527344 400.28125 427.527344 Z M 408.359375 421.792969 C 408.230469 421.890625 408.097656 421.992188 407.96875 422.09375 C 407.78125 422.222656 407.609375 422.367188 407.410156 422.496094 C 407.265625 422.597656 407.121094 422.683594 406.976562 422.769531 C 406.792969 422.882812 406.605469 423 406.402344 423.097656 C 406.257812 423.1875 406.101562 423.257812 405.941406 423.328125 C 405.742188 423.429688 405.539062 423.515625 405.339844 423.601562 C 405.179688 423.675781 405.023438 423.730469 404.863281 423.789062 C 404.648438 423.875 404.449219 423.949219 404.234375 424.003906 C 404.074219 424.046875 403.917969 424.105469 403.757812 424.148438 C 403.527344 424.207031 403.296875 424.265625 403.066406 424.320312 C 402.925781 424.351562 402.765625 424.394531 402.621094 424.421875 C 402.363281 424.464844 402.105469 424.507812 401.847656 424.535156 C 401.71875 424.550781 401.585938 424.578125 401.457031 424.578125 C 401.070312 424.609375 400.667969 424.636719 400.265625 424.636719 C 399.863281 424.636719 399.472656 424.625 399.070312 424.578125 C 398.941406 424.578125 398.8125 424.550781 398.683594 424.535156 C 398.425781 424.507812 398.167969 424.464844 397.90625 424.421875 C 397.765625 424.394531 397.605469 424.351562 397.460938 424.320312 C 397.230469 424.265625 397 424.21875 396.773438 424.148438 C 396.613281 424.105469 396.46875 424.046875 396.3125 424.003906 C 396.097656 423.933594 395.878906 423.859375 395.664062 423.773438 C 395.507812 423.71875 395.363281 423.660156 395.21875 423.589844 C 395.003906 423.5 394.800781 423.402344 394.585938 423.300781 C 394.441406 423.230469 394.300781 423.15625 394.15625 423.085938 C 393.953125 422.96875 393.753906 422.855469 393.550781 422.738281 C 393.421875 422.652344 393.277344 422.582031 393.148438 422.480469 C 392.949219 422.351562 392.761719 422.207031 392.558594 422.0625 C 392.429688 421.976562 392.316406 421.878906 392.1875 421.792969 C 392.144531 421.761719 392.101562 421.71875 392.058594 421.675781 C 393.464844 418.441406 396.640625 416.328125 400.25 416.328125 C 403.859375 416.328125 407.035156 418.441406 408.445312 421.675781 C 408.402344 421.703125 408.359375 421.75 408.316406 421.792969 Z M 400.292969 398.761719 C 407.421875 398.761719 413.230469 404.570312 413.230469 411.699219 C 413.230469 414.53125 412.28125 417.277344 410.585938 419.503906 C 408.53125 415.824219 404.664062 413.46875 400.292969 413.46875 C 395.921875 413.46875 392.058594 415.824219 390 419.503906 C 388.304688 417.277344 387.355469 414.53125 387.355469 411.699219 C 387.355469 404.570312 393.164062 398.761719 400.292969 398.761719 Z M 400.292969 398.761719 " fill-opacity="1" fill-rule="nonzero"/></g><path fill="#000000" d="M 400.292969 411.542969 C 403.285156 411.542969 405.726562 409.113281 405.726562 406.109375 C 405.726562 403.105469 403.296875 400.675781 400.292969 400.675781 C 397.289062 400.675781 394.859375 403.117188 394.859375 406.109375 C 394.859375 409.097656 397.289062 411.542969 400.292969 411.542969 Z M 400.292969 403.550781 C 401.703125 403.550781 402.851562 404.699219 402.851562 406.109375 C 402.851562 407.515625 401.703125 408.667969 400.292969 408.667969 C 398.886719 408.667969 397.734375 407.515625 397.734375 406.109375 C 397.734375 404.699219 398.886719 403.550781 400.292969 403.550781 Z M 400.292969 403.550781 " fill-opacity="1" fill-rule="nonzero"/><g clip-path="url(#d2e7d41cd1)"><path fill="#000000" d="M 426.109375 454.753906 C 428.84375 454.496094 431.429688 453.460938 433.585938 451.761719 C 433.945312 451.476562 434.289062 451.171875 434.636719 450.859375 C 437.480469 448.167969 439.105469 444.375 439.105469 440.449219 C 439.105469 432.53125 432.652344 426.074219 424.730469 426.074219 C 416.8125 426.074219 410.355469 432.53125 410.355469 440.449219 C 410.355469 444.390625 411.996094 448.183594 414.839844 450.859375 C 417.515625 453.417969 421.023438 454.824219 424.730469 454.824219 C 425.191406 454.824219 425.652344 454.796875 426.109375 454.753906 Z M 423.683594 451.890625 C 423.566406 451.890625 423.453125 451.863281 423.335938 451.847656 C 423.105469 451.820312 422.875 451.792969 422.648438 451.75 C 422.515625 451.71875 422.386719 451.691406 422.257812 451.664062 C 422.042969 451.621094 421.84375 451.5625 421.625 451.503906 C 421.496094 451.460938 421.367188 451.433594 421.238281 451.390625 C 421.035156 451.332031 420.835938 451.261719 420.648438 451.1875 C 420.519531 451.144531 420.390625 451.085938 420.261719 451.03125 C 420.074219 450.945312 419.871094 450.859375 419.6875 450.769531 C 419.570312 450.714844 419.441406 450.65625 419.328125 450.585938 C 419.140625 450.484375 418.953125 450.367188 418.765625 450.253906 C 418.652344 450.183594 418.550781 450.125 418.433594 450.050781 C 418.25 449.921875 418.0625 449.792969 417.875 449.648438 C 417.773438 449.578125 417.671875 449.507812 417.585938 449.433594 C 417.558594 449.421875 417.542969 449.390625 417.515625 449.375 C 418.78125 446.574219 421.570312 444.75 424.71875 444.75 C 427.863281 444.75 430.652344 446.574219 431.917969 449.375 C 431.890625 449.390625 431.875 449.421875 431.847656 449.433594 C 431.746094 449.519531 431.644531 449.59375 431.546875 449.664062 C 431.371094 449.792969 431.199219 449.921875 431.011719 450.039062 C 430.898438 450.109375 430.78125 450.183594 430.652344 450.253906 C 430.480469 450.355469 430.292969 450.46875 430.121094 450.570312 C 429.992188 450.640625 429.863281 450.699219 429.734375 450.757812 C 429.546875 450.84375 429.375 450.929688 429.1875 451.015625 C 429.058594 451.074219 428.929688 451.128906 428.785156 451.171875 C 428.597656 451.246094 428.398438 451.316406 428.210938 451.375 C 428.082031 451.417969 427.9375 451.460938 427.808594 451.503906 C 427.605469 451.5625 427.40625 451.605469 427.1875 451.648438 C 427.058594 451.675781 426.929688 451.707031 426.800781 451.734375 C 426.570312 451.777344 426.339844 451.804688 426.109375 451.835938 C 425.996094 451.835938 425.882812 451.863281 425.765625 451.878906 C 425.421875 451.90625 425.078125 451.921875 424.71875 451.921875 C 424.359375 451.921875 424.011719 451.90625 423.667969 451.878906 Z M 424.730469 428.9375 C 431.070312 428.9375 436.230469 434.097656 436.230469 440.4375 C 436.230469 442.878906 435.425781 445.25 434.003906 447.207031 C 432.105469 443.957031 428.640625 441.875 424.730469 441.875 C 420.820312 441.875 417.355469 443.957031 415.460938 447.207031 C 414.035156 445.25 413.230469 442.878906 413.230469 440.4375 C 413.230469 434.097656 418.390625 428.9375 424.730469 428.9375 Z M 424.730469 428.9375 " fill-opacity="1" fill-rule="nonzero"/></g><path fill="#000000" d="M 424.730469 440.449219 C 427.503906 440.449219 429.761719 438.191406 429.761719 435.417969 C 429.761719 432.644531 427.503906 430.386719 424.730469 430.386719 C 421.957031 430.386719 419.699219 432.644531 419.699219 435.417969 C 419.699219 438.191406 421.957031 440.449219 424.730469 440.449219 Z M 424.730469 433.261719 C 425.925781 433.261719 426.886719 434.226562 426.886719 435.417969 C 426.886719 436.613281 425.925781 437.574219 424.730469 437.574219 C 423.539062 437.574219 422.574219 436.613281 422.574219 435.417969 C 422.574219 434.226562 423.539062 433.261719 424.730469 433.261719 Z M 424.730469 433.261719 " fill-opacity="1" fill-rule="nonzero"/><path fill="#000000" d="M 430.324219 464.242188 C 430.121094 463.824219 429.71875 463.535156 429.273438 463.464844 C 428.828125 463.390625 428.355469 463.535156 428.023438 463.867188 L 425.121094 466.769531 L 421.699219 459.929688 C 421.339844 459.222656 420.476562 458.9375 419.773438 459.28125 C 419.066406 459.640625 418.78125 460.503906 419.125 461.207031 L 423.4375 469.832031 C 423.640625 470.25 424.042969 470.535156 424.488281 470.609375 C 424.945312 470.679688 425.40625 470.535156 425.738281 470.207031 L 428.640625 467.300781 L 432.0625 474.144531 C 432.320312 474.648438 432.824219 474.9375 433.355469 474.9375 C 433.570312 474.9375 433.789062 474.890625 434.003906 474.777344 C 434.707031 474.417969 434.996094 473.554688 434.648438 472.851562 L 430.335938 464.226562 Z M 430.324219 464.242188 " fill-opacity="1" fill-rule="nonzero"/><path fill="#000000" d="M 367.777344 409.542969 L 371.875 409.542969 L 369.460938 416.804688 C 369.214844 417.550781 369.617188 418.371094 370.363281 418.613281 C 370.507812 418.671875 370.667969 418.6875 370.824219 418.6875 C 371.429688 418.6875 371.988281 418.3125 372.191406 417.707031 L 375.238281 408.566406 C 375.382812 408.136719 375.308594 407.644531 375.035156 407.273438 C 374.765625 406.898438 374.332031 406.667969 373.871094 406.667969 L 369.777344 406.667969 L 372.191406 399.410156 C 372.433594 398.660156 372.03125 397.84375 371.285156 397.597656 C 370.523438 397.355469 369.71875 397.757812 369.460938 398.503906 L 366.410156 407.644531 C 366.269531 408.078125 366.339844 408.566406 366.613281 408.941406 C 366.886719 409.3125 367.316406 409.542969 367.777344 409.542969 Z M 367.777344 409.542969 " fill-opacity="1" fill-rule="nonzero"/></svg>