<svg xmlns="http://www.w3.org/2000/svg" xmlns:xlink="http://www.w3.org/1999/xlink" width="1080" zoomAndPan="magnify" viewBox="0 0 810 809.999993" height="1080" preserveAspectRatio="xMidYMid meet" version="1.0"><defs><clipPath id="ac8451319d"><path d="M 331.800781 524.980469 L 442.800781 524.980469 L 442.800781 567.730469 L 331.800781 567.730469 Z M 331.800781 524.980469 " clip-rule="nonzero"/></clipPath></defs><rect x="-81" width="972" fill="#ffffff" y="-80.999999" height="971.999992" fill-opacity="1"/><rect x="-81" width="972" fill="#ffffff" y="-80.999999" height="971.999992" fill-opacity="1"/><g clip-path="url(#ac8451319d)"><path fill="#000000" d="M 339.445312 526.113281 C 341.015625 526.6875 342.289062 527.992188 343.878906 528.402344 C 343.878906 528.402344 352.519531 529.273438 352.519531 529.273438 C 357.753906 530.148438 362.925781 531.585938 368.25 531.8125 C 373.476562 532.039062 375.804688 529.230469 380.214844 529.179688 C 381.722656 529.160156 382.699219 529.191406 384.203125 528.789062 C 385.820312 528.359375 386.800781 527.664062 388.636719 527.53125 C 390.328125 527.402344 392.21875 528.429688 393.734375 529.085938 C 396.945312 530.472656 402.039062 533.269531 405.476562 533.136719 C 408.253906 533.027344 408.066406 532.054688 410.128906 531.023438 C 411.242188 530.46875 412.667969 530.261719 413.894531 530.089844 C 413.894531 530.089844 431.402344 527.671875 431.402344 527.671875 C 431.402344 527.671875 442.703125 526.3125 442.703125 526.3125 C 442.703125 526.3125 442.703125 554.515625 442.703125 554.515625 C 442.703125 555.046875 442.789062 555.90625 442.347656 556.285156 C 441.972656 556.605469 440.382812 556.789062 439.820312 556.898438 C 439.820312 556.898438 432.730469 557.984375 432.730469 557.984375 C 432.730469 557.984375 426.082031 558.816406 426.082031 558.816406 C 426.082031 558.816406 423.425781 559.707031 423.425781 559.707031 C 420.0625 560.707031 416.902344 560.996094 414.117188 558.460938 C 413.332031 557.746094 412.863281 557.148438 412.273438 556.28125 C 411.390625 554.980469 411.089844 554.449219 410.574219 552.976562 C 408.824219 554.015625 407.542969 554.886719 405.476562 555.179688 C 405.894531 556.925781 404.902344 558.628906 403.261719 559.339844 C 403.261719 559.339844 400.824219 560.011719 400.824219 560.011719 C 400.824219 560.011719 397.722656 561.75 397.722656 561.75 C 396.457031 562.296875 395.933594 562.125 395.285156 562.453125 C 394.527344 562.835938 394.105469 563.554688 393.066406 563.957031 C 392.058594 564.351562 391.484375 564.035156 390.628906 564.371094 C 390.628906 564.371094 389.300781 565.09375 389.300781 565.09375 C 387.460938 566.003906 386.136719 566.15625 384.203125 565.535156 C 383.199219 567.59375 380.148438 567.722656 378.453125 566.492188 C 377.871094 566.070312 377.667969 565.703125 377.335938 565.09375 C 375.453125 565.273438 373.816406 564.320312 373.347656 562.449219 C 370.941406 563.03125 368.753906 562.191406 368.25 559.585938 C 367.644531 559.585938 366.828125 559.621094 366.257812 559.441406 C 364.488281 558.890625 363.710938 557.019531 363.25 555.398438 C 363.074219 554.785156 362.957031 553.738281 362.582031 553.28125 C 361.953125 552.519531 360.121094 552.113281 359.167969 551.652344 C 358.144531 554.707031 357.855469 557.769531 357.214844 560.90625 C 356.644531 563.710938 356.5 565.386719 353.183594 565.3125 C 350.84375 565.257812 349.125 564.285156 346.980469 563.648438 C 346.980469 563.648438 342.546875 562.589844 342.546875 562.589844 C 342.546875 562.589844 336.566406 560.9375 336.566406 560.9375 C 335.726562 560.699219 332.558594 559.847656 332.136719 559.253906 C 331.863281 558.859375 331.914062 558.074219 331.914062 557.601562 C 331.914062 557.601562 331.914062 524.992188 331.914062 524.992188 C 334.410156 525.320312 337.046875 525.234375 339.445312 526.113281 Z M 350.523438 531.003906 C 348.179688 530.714844 345.742188 530.9375 343.433594 530.351562 C 341.34375 529.824219 340.296875 528.675781 339.003906 528.121094 C 337.480469 527.46875 334.6875 527.195312 333.019531 527.195312 C 333.019531 527.195312 333.019531 555.839844 333.019531 555.839844 C 333.019531 556.3125 332.96875 557.097656 333.246094 557.488281 C 333.644531 558.054688 336.25 558.738281 337.007812 558.953125 C 337.007812 558.953125 342.546875 560.496094 342.546875 560.496094 C 342.546875 560.496094 348.753906 562.136719 348.753906 562.136719 C 349.949219 562.578125 351.480469 563.105469 352.742188 563.265625 C 353.1875 563.324219 353.976562 563.402344 354.355469 563.113281 C 354.785156 562.78125 355.015625 561.445312 355.132812 560.90625 C 355.132812 560.90625 356.199219 554.957031 356.199219 554.957031 C 356.714844 552.242188 357.195312 551.808594 357.804688 549.667969 C 358.960938 545.585938 360.902344 537.011719 360.9375 532.921875 C 360.9375 532.921875 350.523438 531.003906 350.523438 531.003906 Z M 434.726562 529.335938 C 434.726562 529.335938 419.878906 531.222656 419.878906 531.222656 C 419.878906 531.222656 412.789062 532.261719 412.789062 532.261719 C 414.433594 535.359375 414.6875 537.679688 415.28125 541.078125 C 415.988281 545.113281 416.339844 547.746094 416.332031 551.871094 C 416.332031 551.871094 416.132812 554.515625 416.132812 554.515625 C 416.03125 555.953125 416.191406 555.714844 415.890625 557.382812 C 416.65625 557.8125 417.449219 558.265625 418.328125 558.410156 C 420.722656 558.800781 423.410156 557.316406 425.640625 556.835938 C 425.640625 556.835938 432.507812 555.996094 432.507812 555.996094 C 432.507812 555.996094 441.816406 554.515625 441.816406 554.515625 C 441.816406 554.515625 441.816406 539.972656 441.816406 539.972656 C 441.816406 539.972656 441.59375 536.230469 441.59375 536.230469 C 441.59375 536.230469 441.59375 528.515625 441.59375 528.515625 C 441.59375 528.515625 434.726562 529.335938 434.726562 529.335938 Z M 414.339844 550.332031 C 414.332031 546.664062 413.558594 542.488281 412.875 538.871094 C 412.644531 537.648438 412.164062 534.140625 410.992188 533.601562 C 410.179688 533.226562 409.601562 534.007812 408.800781 534.449219 C 407.890625 534.945312 406.507812 535.113281 405.476562 535.128906 C 401.785156 535.167969 398.105469 533.351562 394.839844 531.769531 C 393.171875 530.957031 390.453125 529.546875 388.636719 529.628906 C 387.179688 529.691406 385.757812 530.554688 384.203125 530.875 C 384.203125 530.875 377.777344 531.519531 377.777344 531.519531 C 376.5625 531.890625 374.546875 533.148438 373.347656 533.746094 C 372 534.414062 370.5625 534.875 369.136719 535.347656 C 369.367188 535.796875 369.535156 536.175781 369.917969 536.527344 C 371.140625 537.636719 374.257812 537.765625 375.785156 537.320312 C 375.785156 537.320312 379.332031 535.988281 379.332031 535.988281 C 380.210938 535.773438 380.660156 535.789062 381.546875 535.789062 C 383.324219 535.785156 384.984375 535.644531 386.640625 536.429688 C 388.371094 537.25 390.257812 539.683594 391.738281 541.054688 C 391.738281 541.054688 393.472656 542.628906 393.472656 542.628906 C 393.472656 542.628906 396.621094 546.144531 396.621094 546.144531 C 396.621094 546.144531 401.265625 550.390625 401.265625 550.390625 C 401.265625 550.390625 403.925781 552.632812 403.925781 552.632812 C 406.492188 554.390625 409.054688 550.625 411.007812 550.9375 C 412.691406 551.207031 412.15625 553.296875 414.117188 554.957031 C 414.117188 554.957031 414.339844 550.332031 414.339844 550.332031 Z M 362.933594 533.363281 C 362.867188 536.234375 361.691406 542.117188 361.015625 545.042969 C 360.824219 545.867188 359.847656 549 360.125 549.609375 C 360.359375 550.132812 361.109375 550.273438 361.605469 550.441406 C 362.746094 550.835938 363.515625 551.160156 364.484375 551.898438 C 365.457031 552.640625 368.515625 554.925781 369.582031 555.113281 C 369.582031 555.113281 372.019531 554.960938 372.019531 554.960938 C 373.082031 554.9375 373.933594 554.972656 374.898438 555.488281 C 375.757812 555.953125 376.207031 556.59375 376.894531 556.742188 C 377.542969 556.886719 378.039062 556.453125 379.109375 556.742188 C 380.609375 557.148438 381.4375 558.351562 382.050781 558.703125 C 382.730469 559.082031 384.28125 559.050781 385.089844 559.28125 C 387.878906 560.085938 389.996094 562.867188 393.066406 561.789062 C 393.066406 561.789062 393.066406 561.347656 393.066406 561.347656 C 393.066406 561.347656 388.863281 558.195312 388.863281 558.195312 C 388.445312 557.828125 387.730469 557.183594 388.007812 556.554688 C 388.507812 555.421875 389.882812 556.613281 390.410156 557.027344 C 391.835938 558.152344 394.246094 560.34375 396.171875 560.121094 C 396.769531 560.054688 397.976562 559.414062 398.609375 559.144531 C 398.609375 559.144531 398.609375 558.703125 398.609375 558.703125 C 396.265625 557.183594 393.5625 555.390625 392.0625 552.976562 C 391.671875 552.34375 391.03125 551.085938 391.164062 550.335938 C 391.265625 549.769531 391.753906 549.230469 392.371094 549.488281 C 393.199219 549.828125 392.945312 550.941406 393.910156 552.3125 C 395.140625 554.066406 397.351562 555.804688 399.273438 556.773438 C 399.933594 557.109375 400.96875 557.726562 401.710938 557.660156 C 403.445312 557.503906 404.0625 555.609375 402.96875 554.359375 C 402.96875 554.359375 395.507812 547.6875 395.507812 547.6875 C 395.507812 547.6875 392.160156 543.949219 392.160156 543.949219 C 392.160156 543.949219 389.53125 541.515625 389.53125 541.515625 C 388.453125 540.398438 388.003906 539.625 386.640625 538.675781 C 385.046875 537.5625 381.164062 537.5 379.332031 538.039062 C 377.164062 538.671875 376.582031 539.503906 374.011719 539.535156 C 371.796875 539.558594 369.578125 539.15625 368.117188 537.332031 C 367.65625 536.753906 367.148438 535.886719 367.257812 535.128906 C 367.320312 534.703125 367.613281 534.191406 367.808594 533.804688 C 367.808594 533.804688 362.933594 533.363281 362.933594 533.363281 Z M 368.03125 556.71875 C 368.03125 556.71875 365.59375 554.957031 365.59375 554.957031 C 365.332031 555.992188 366.359375 558.644531 368.03125 556.71875 Z M 370.378906 557.347656 C 369.628906 558.050781 370.054688 560.824219 372.238281 560.605469 C 373.691406 560.460938 376.582031 559.472656 374.644531 557.664062 C 374.457031 557.488281 374.242188 557.34375 374.011719 557.230469 C 373.21875 556.839844 371.996094 556.914062 371.136719 557.015625 C 370.839844 557.109375 370.625 557.117188 370.378906 557.347656 Z M 376.75 560.464844 C 376.75 560.464844 375.855469 561.476562 375.855469 561.476562 C 375.628906 561.757812 375.425781 562.019531 375.601562 562.394531 C 376.085938 563.441406 377.707031 562.996094 378.445312 562.546875 C 378.996094 562.210938 380.3125 561.316406 380.4375 560.667969 C 380.6875 559.332031 378.921875 558.609375 377.84375 558.835938 C 377.101562 559.410156 377.269531 559.726562 376.75 560.464844 Z M 382.171875 564.871094 C 383.539062 564.113281 384.222656 561.785156 382.652344 560.90625 C 381.789062 562.511719 380.863281 563.242188 379.332031 564.210938 C 379.332031 564.210938 379.332031 564.871094 379.332031 564.871094 C 380.117188 565.066406 381.429688 565.277344 382.171875 564.871094 Z M 385.535156 561.789062 C 385.566406 562.246094 385.492188 563.316406 385.761719 563.628906 C 386.304688 564.269531 387.890625 563.484375 388.414062 563.109375 C 388.414062 563.109375 385.535156 561.789062 385.535156 561.789062 Z M 385.535156 561.789062 " fill-opacity="1" fill-rule="nonzero"/></g></svg>