<svg xmlns="http://www.w3.org/2000/svg" xmlns:xlink="http://www.w3.org/1999/xlink" width="1080" zoomAndPan="magnify" viewBox="0 0 810 809.999993" height="1080" preserveAspectRatio="xMidYMid meet" version="1.0"><defs><clipPath id="994c8088cd"><path d="M 352.855469 568.011719 L 415 568.011719 L 415 609 L 352.855469 609 Z M 352.855469 568.011719 " clip-rule="nonzero"/></clipPath><clipPath id="3c94d6bcec"><path d="M 352.855469 596 L 439.105469 596 L 439.105469 654.261719 L 352.855469 654.261719 Z M 352.855469 596 " clip-rule="nonzero"/></clipPath><clipPath id="74509ea775"><path d="M 352.855469 600 L 356 600 L 356 604 L 352.855469 604 Z M 352.855469 600 " clip-rule="nonzero"/></clipPath></defs><rect x="-81" width="972" fill="#ffffff" y="-80.999999" height="971.999992" fill-opacity="1"/><rect x="-81" width="972" fill="#ffffff" y="-80.999999" height="971.999992" fill-opacity="1"/><g clip-path="url(#994c8088cd)"><path fill="#000000" d="M 354.203125 597.660156 C 354.382812 597.660156 354.554688 597.625 354.71875 597.558594 C 354.886719 597.488281 355.03125 597.394531 355.15625 597.265625 C 355.285156 597.140625 355.378906 596.996094 355.449219 596.828125 C 355.515625 596.664062 355.550781 596.492188 355.550781 596.3125 L 355.550781 574.75 C 355.550781 574.484375 355.578125 574.222656 355.628906 573.960938 C 355.683594 573.703125 355.757812 573.449219 355.859375 573.203125 C 355.960938 572.960938 356.085938 572.726562 356.234375 572.503906 C 356.382812 572.285156 356.550781 572.082031 356.738281 571.894531 C 356.925781 571.707031 357.128906 571.539062 357.347656 571.390625 C 357.570312 571.242188 357.804688 571.117188 358.046875 571.015625 C 358.292969 570.914062 358.546875 570.839844 358.804688 570.785156 C 359.066406 570.734375 359.328125 570.707031 359.59375 570.707031 L 408.109375 570.707031 C 408.375 570.707031 408.636719 570.734375 408.898438 570.785156 C 409.160156 570.839844 409.410156 570.914062 409.65625 571.015625 C 409.902344 571.117188 410.132812 571.242188 410.355469 571.390625 C 410.574219 571.539062 410.78125 571.707031 410.96875 571.894531 C 411.15625 572.082031 411.324219 572.285156 411.46875 572.503906 C 411.617188 572.726562 411.742188 572.960938 411.84375 573.203125 C 411.945312 573.449219 412.023438 573.703125 412.074219 573.960938 C 412.125 574.222656 412.152344 574.484375 412.152344 574.75 L 412.152344 596.3125 L 398.675781 596.3125 C 398.023438 596.3125 397.378906 596.410156 396.753906 596.597656 C 396.125 596.785156 395.539062 597.058594 394.992188 597.417969 C 394.445312 597.777344 393.957031 598.207031 393.535156 598.707031 C 393.113281 599.207031 392.773438 599.757812 392.507812 600.355469 L 363.636719 600.355469 C 363.457031 600.355469 363.285156 600.320312 363.121094 600.253906 C 362.957031 600.183594 362.8125 600.085938 362.683594 599.960938 C 362.558594 599.835938 362.460938 599.6875 362.394531 599.523438 C 362.324219 599.359375 362.289062 599.1875 362.289062 599.007812 L 362.289062 577.445312 C 362.289062 577.265625 362.324219 577.09375 362.394531 576.929688 C 362.460938 576.765625 362.558594 576.621094 362.683594 576.492188 C 362.8125 576.367188 362.957031 576.269531 363.121094 576.203125 C 363.285156 576.132812 363.457031 576.097656 363.636719 576.097656 L 404.066406 576.097656 C 404.246094 576.097656 404.417969 576.132812 404.582031 576.203125 C 404.746094 576.269531 404.894531 576.367188 405.019531 576.492188 C 405.144531 576.621094 405.242188 576.765625 405.3125 576.929688 C 405.378906 577.09375 405.414062 577.265625 405.414062 577.445312 L 405.414062 590.921875 C 405.414062 591.101562 405.449219 591.273438 405.515625 591.4375 C 405.585938 591.601562 405.683594 591.75 405.808594 591.875 C 405.9375 592.003906 406.082031 592.097656 406.246094 592.167969 C 406.410156 592.234375 406.582031 592.269531 406.761719 592.269531 C 406.941406 592.269531 407.113281 592.234375 407.277344 592.167969 C 407.441406 592.097656 407.589844 592.003906 407.714844 591.875 C 407.839844 591.75 407.9375 591.601562 408.007812 591.4375 C 408.074219 591.273438 408.109375 591.101562 408.109375 590.921875 L 408.109375 577.445312 C 408.109375 577.179688 408.082031 576.917969 408.03125 576.65625 C 407.980469 576.398438 407.902344 576.144531 407.800781 575.898438 C 407.699219 575.65625 407.574219 575.421875 407.425781 575.199219 C 407.28125 574.980469 407.113281 574.777344 406.925781 574.589844 C 406.738281 574.402344 406.53125 574.234375 406.3125 574.085938 C 406.089844 573.9375 405.859375 573.8125 405.613281 573.710938 C 405.367188 573.609375 405.117188 573.535156 404.855469 573.480469 C 404.59375 573.429688 404.332031 573.402344 404.066406 573.402344 L 363.636719 573.402344 C 363.371094 573.402344 363.109375 573.429688 362.847656 573.480469 C 362.589844 573.535156 362.335938 573.609375 362.089844 573.710938 C 361.847656 573.8125 361.613281 573.9375 361.390625 574.085938 C 361.171875 574.234375 360.96875 574.402344 360.78125 574.589844 C 360.59375 574.777344 360.425781 574.980469 360.277344 575.199219 C 360.128906 575.421875 360.003906 575.65625 359.902344 575.898438 C 359.800781 576.144531 359.726562 576.398438 359.671875 576.65625 C 359.621094 576.917969 359.59375 577.179688 359.59375 577.445312 L 359.59375 599.007812 C 359.59375 599.273438 359.621094 599.535156 359.671875 599.796875 C 359.726562 600.058594 359.800781 600.308594 359.902344 600.554688 C 360.003906 600.800781 360.128906 601.03125 360.277344 601.253906 C 360.425781 601.472656 360.59375 601.679688 360.78125 601.867188 C 360.96875 602.054688 361.171875 602.222656 361.390625 602.367188 C 361.613281 602.515625 361.847656 602.640625 362.089844 602.742188 C 362.335938 602.84375 362.589844 602.921875 362.847656 602.972656 C 363.109375 603.023438 363.371094 603.050781 363.636719 603.050781 L 391.9375 603.050781 L 391.9375 607.09375 C 391.9375 607.273438 391.972656 607.445312 392.039062 607.609375 C 392.109375 607.773438 392.207031 607.921875 392.332031 608.046875 C 392.460938 608.175781 392.605469 608.269531 392.769531 608.339844 C 392.933594 608.40625 393.105469 608.441406 393.285156 608.441406 C 393.464844 608.441406 393.636719 608.40625 393.800781 608.339844 C 393.964844 608.269531 394.113281 608.175781 394.238281 608.046875 C 394.363281 607.921875 394.460938 607.773438 394.53125 607.609375 C 394.597656 607.445312 394.632812 607.273438 394.632812 607.09375 L 394.632812 603.050781 C 394.632812 602.785156 394.660156 602.523438 394.710938 602.261719 C 394.765625 602.003906 394.839844 601.75 394.941406 601.503906 C 395.042969 601.261719 395.167969 601.027344 395.316406 600.804688 C 395.464844 600.585938 395.632812 600.382812 395.820312 600.195312 C 396.007812 600.007812 396.210938 599.839844 396.429688 599.691406 C 396.652344 599.542969 396.886719 599.417969 397.128906 599.316406 C 397.375 599.214844 397.628906 599.140625 397.886719 599.085938 C 398.148438 599.035156 398.410156 599.007812 398.675781 599.007812 L 413.5 599.007812 C 413.679688 599.007812 413.851562 598.972656 414.015625 598.90625 C 414.183594 598.835938 414.328125 598.742188 414.453125 598.613281 C 414.582031 598.488281 414.675781 598.34375 414.746094 598.175781 C 414.8125 598.011719 414.847656 597.839844 414.847656 597.660156 L 414.847656 574.75 C 414.847656 574.308594 414.804688 573.871094 414.71875 573.4375 C 414.632812 573.003906 414.503906 572.582031 414.332031 572.171875 C 414.164062 571.765625 413.957031 571.375 413.710938 571.007812 C 413.464844 570.640625 413.183594 570.300781 412.871094 569.988281 C 412.558594 569.675781 412.21875 569.394531 411.851562 569.152344 C 411.484375 568.90625 411.097656 568.695312 410.6875 568.527344 C 410.277344 568.359375 409.859375 568.230469 409.425781 568.144531 C 408.992188 568.054688 408.550781 568.011719 408.109375 568.011719 L 359.59375 568.011719 C 359.152344 568.011719 358.714844 568.054688 358.28125 568.144531 C 357.847656 568.230469 357.425781 568.359375 357.015625 568.527344 C 356.609375 568.695312 356.21875 568.90625 355.851562 569.152344 C 355.484375 569.394531 355.144531 569.675781 354.832031 569.988281 C 354.519531 570.300781 354.238281 570.640625 353.996094 571.007812 C 353.75 571.375 353.539062 571.765625 353.371094 572.171875 C 353.203125 572.582031 353.074219 573.003906 352.988281 573.4375 C 352.898438 573.871094 352.855469 574.308594 352.855469 574.75 L 352.855469 596.3125 C 352.855469 596.492188 352.890625 596.664062 352.957031 596.828125 C 353.027344 596.996094 353.125 597.140625 353.25 597.265625 C 353.378906 597.394531 353.523438 597.488281 353.6875 597.558594 C 353.851562 597.625 354.023438 597.660156 354.203125 597.660156 Z M 354.203125 597.660156 " fill-opacity="1" fill-rule="nonzero"/></g><path fill="#000000" d="M 390.710938 585.921875 L 381.199219 580.207031 C 380.78125 579.960938 380.328125 579.832031 379.84375 579.828125 C 379.355469 579.820312 378.902344 579.9375 378.480469 580.179688 C 378.058594 580.417969 377.726562 580.75 377.480469 581.167969 C 377.234375 581.589844 377.113281 582.039062 377.113281 582.527344 L 377.113281 593.929688 C 377.109375 594.414062 377.230469 594.867188 377.476562 595.285156 C 377.71875 595.707031 378.050781 596.035156 378.476562 596.273438 C 378.898438 596.511719 379.355469 596.628906 379.839844 596.625 C 380.324219 596.617188 380.777344 596.492188 381.199219 596.246094 L 390.710938 590.53125 C 390.910156 590.414062 391.09375 590.269531 391.253906 590.105469 C 391.417969 589.9375 391.554688 589.753906 391.667969 589.550781 C 391.785156 589.351562 391.871094 589.136719 391.929688 588.914062 C 391.988281 588.6875 392.019531 588.460938 392.019531 588.226562 C 392.019531 587.996094 391.988281 587.765625 391.929688 587.542969 C 391.871094 587.316406 391.785156 587.105469 391.667969 586.902344 C 391.554688 586.699219 391.417969 586.515625 391.253906 586.351562 C 391.09375 586.183594 390.910156 586.042969 390.710938 585.921875 Z M 379.808594 593.929688 L 379.808594 582.527344 L 389.324219 588.226562 Z M 379.808594 593.929688 " fill-opacity="1" fill-rule="nonzero"/><path fill="#000000" d="M 389.25 607.085938 C 389.25 607.265625 389.214844 607.441406 389.148438 607.605469 C 389.078125 607.773438 388.980469 607.917969 388.851562 608.046875 C 388.726562 608.171875 388.578125 608.269531 388.414062 608.339844 C 388.246094 608.40625 388.074219 608.441406 387.894531 608.441406 C 387.714844 608.441406 387.542969 608.40625 387.378906 608.339844 C 387.210938 608.269531 387.066406 608.171875 386.9375 608.046875 C 386.8125 607.917969 386.710938 607.773438 386.644531 607.605469 C 386.574219 607.441406 386.539062 607.265625 386.539062 607.085938 C 386.539062 606.90625 386.574219 606.734375 386.644531 606.570312 C 386.710938 606.402344 386.8125 606.257812 386.9375 606.128906 C 387.066406 606.003906 387.210938 605.90625 387.378906 605.835938 C 387.542969 605.769531 387.714844 605.734375 387.894531 605.734375 C 388.074219 605.734375 388.246094 605.769531 388.414062 605.835938 C 388.578125 605.90625 388.726562 606.003906 388.851562 606.128906 C 388.980469 606.257812 389.078125 606.402344 389.148438 606.570312 C 389.214844 606.734375 389.25 606.90625 389.25 607.085938 Z M 389.25 607.085938 " fill-opacity="1" fill-rule="nonzero"/><path fill="#000000" d="M 362.289062 605.746094 C 362.109375 605.746094 361.9375 605.78125 361.773438 605.847656 C 361.609375 605.917969 361.464844 606.015625 361.335938 606.140625 C 361.210938 606.269531 361.113281 606.414062 361.042969 606.578125 C 360.976562 606.742188 360.941406 606.914062 360.941406 607.09375 C 360.941406 607.273438 360.976562 607.445312 361.042969 607.609375 C 361.113281 607.773438 361.210938 607.921875 361.335938 608.046875 C 361.464844 608.175781 361.609375 608.269531 361.773438 608.339844 C 361.9375 608.40625 362.109375 608.441406 362.289062 608.441406 L 378.460938 608.441406 C 378.640625 608.441406 378.8125 608.40625 378.976562 608.339844 C 379.140625 608.269531 379.289062 608.175781 379.414062 608.046875 C 379.539062 607.921875 379.636719 607.773438 379.707031 607.609375 C 379.773438 607.445312 379.808594 607.273438 379.808594 607.09375 C 379.808594 606.914062 379.773438 606.742188 379.707031 606.578125 C 379.636719 606.414062 379.539062 606.269531 379.414062 606.140625 C 379.289062 606.015625 379.140625 605.917969 378.976562 605.847656 C 378.8125 605.78125 378.640625 605.746094 378.460938 605.746094 Z M 362.289062 605.746094 " fill-opacity="1" fill-rule="nonzero"/><g clip-path="url(#3c94d6bcec)"><path fill="#000000" d="M 432.367188 596.3125 L 418.890625 596.3125 C 418.710938 596.3125 418.539062 596.347656 418.375 596.414062 C 418.210938 596.484375 418.066406 596.582031 417.9375 596.707031 C 417.8125 596.835938 417.714844 596.980469 417.644531 597.144531 C 417.578125 597.308594 417.542969 597.480469 417.542969 597.660156 C 417.542969 597.839844 417.578125 598.011719 417.644531 598.175781 C 417.714844 598.339844 417.8125 598.488281 417.9375 598.613281 C 418.066406 598.742188 418.210938 598.835938 418.375 598.90625 C 418.539062 598.972656 418.710938 599.007812 418.890625 599.007812 L 432.367188 599.007812 C 432.632812 599.007812 432.894531 599.035156 433.15625 599.089844 C 433.414062 599.140625 433.667969 599.21875 433.914062 599.320312 C 434.15625 599.421875 434.390625 599.546875 434.609375 599.695312 C 434.832031 599.839844 435.035156 600.007812 435.222656 600.195312 C 435.410156 600.382812 435.578125 600.585938 435.726562 600.808594 C 435.875 601.027344 436 601.261719 436.101562 601.507812 C 436.203125 601.75 436.277344 602.003906 436.332031 602.261719 C 436.382812 602.523438 436.410156 602.785156 436.410156 603.050781 L 436.410156 624.613281 C 436.410156 624.878906 436.382812 625.140625 436.332031 625.402344 C 436.277344 625.660156 436.203125 625.914062 436.101562 626.160156 C 436 626.40625 435.875 626.636719 435.726562 626.855469 C 435.578125 627.078125 435.410156 627.28125 435.222656 627.46875 C 435.035156 627.65625 434.832031 627.824219 434.609375 627.972656 C 434.390625 628.121094 434.15625 628.246094 433.914062 628.347656 C 433.667969 628.449219 433.414062 628.523438 433.15625 628.578125 C 432.894531 628.628906 432.632812 628.65625 432.367188 628.65625 L 402.71875 628.65625 L 402.71875 627.308594 C 402.71875 626.867188 402.675781 626.429688 402.589844 625.996094 C 402.503906 625.5625 402.375 625.140625 402.207031 624.730469 C 402.035156 624.324219 401.828125 623.933594 401.582031 623.566406 C 401.335938 623.199219 401.058594 622.859375 400.746094 622.546875 C 400.433594 622.234375 400.09375 621.953125 399.722656 621.707031 C 399.355469 621.460938 398.96875 621.253906 398.558594 621.085938 C 398.152344 620.914062 397.730469 620.789062 397.296875 620.699219 C 396.863281 620.613281 396.421875 620.570312 395.980469 620.570312 L 394.632812 620.570312 L 394.632812 612.484375 C 394.632812 612.304688 394.597656 612.136719 394.53125 611.96875 C 394.460938 611.804688 394.363281 611.660156 394.238281 611.535156 C 394.113281 611.40625 393.964844 611.308594 393.800781 611.242188 C 393.636719 611.171875 393.464844 611.136719 393.285156 611.136719 L 359.59375 611.136719 C 359.328125 611.136719 359.066406 611.109375 358.804688 611.058594 C 358.546875 611.003906 358.292969 610.929688 358.050781 610.828125 C 357.804688 610.726562 357.570312 610.601562 357.351562 610.453125 C 357.128906 610.304688 356.925781 610.136719 356.738281 609.949219 C 356.550781 609.761719 356.382812 609.558594 356.238281 609.335938 C 356.089844 609.117188 355.964844 608.886719 355.863281 608.640625 C 355.761719 608.394531 355.683594 608.140625 355.632812 607.882812 C 355.578125 607.621094 355.550781 607.359375 355.550781 607.09375 C 355.550781 606.914062 355.515625 606.742188 355.449219 606.578125 C 355.378906 606.414062 355.28125 606.269531 355.15625 606.140625 C 355.03125 606.015625 354.882812 605.917969 354.71875 605.847656 C 354.554688 605.78125 354.382812 605.746094 354.203125 605.746094 C 354.023438 605.746094 353.851562 605.78125 353.6875 605.847656 C 353.523438 605.917969 353.378906 606.015625 353.25 606.140625 C 353.125 606.269531 353.027344 606.414062 352.957031 606.578125 C 352.890625 606.742188 352.855469 606.914062 352.855469 607.09375 C 352.855469 607.535156 352.898438 607.976562 352.984375 608.410156 C 353.074219 608.84375 353.199219 609.265625 353.371094 609.671875 C 353.539062 610.082031 353.746094 610.46875 353.992188 610.835938 C 354.238281 611.207031 354.519531 611.546875 354.832031 611.859375 C 355.144531 612.171875 355.484375 612.449219 355.851562 612.695312 C 356.21875 612.941406 356.609375 613.148438 357.015625 613.320312 C 357.425781 613.488281 357.847656 613.617188 358.28125 613.703125 C 358.714844 613.789062 359.152344 613.832031 359.59375 613.832031 L 391.9375 613.832031 L 391.9375 620.570312 L 359.59375 620.570312 C 359.152344 620.570312 358.714844 620.613281 358.28125 620.699219 C 357.847656 620.789062 357.425781 620.914062 357.015625 621.085938 C 356.609375 621.253906 356.21875 621.460938 355.851562 621.707031 C 355.484375 621.953125 355.144531 622.234375 354.832031 622.546875 C 354.519531 622.859375 354.238281 623.199219 353.992188 623.566406 C 353.746094 623.933594 353.539062 624.324219 353.371094 624.730469 C 353.199219 625.140625 353.074219 625.5625 352.984375 625.996094 C 352.898438 626.429688 352.855469 626.867188 352.855469 627.308594 L 352.855469 647.523438 C 352.855469 647.964844 352.898438 648.40625 352.984375 648.839844 C 353.074219 649.273438 353.199219 649.695312 353.371094 650.101562 C 353.539062 650.511719 353.746094 650.898438 353.992188 651.265625 C 354.238281 651.636719 354.519531 651.976562 354.832031 652.289062 C 355.144531 652.601562 355.484375 652.878906 355.851562 653.125 C 356.21875 653.371094 356.609375 653.578125 357.015625 653.75 C 357.425781 653.917969 357.847656 654.046875 358.28125 654.132812 C 358.714844 654.21875 359.152344 654.261719 359.59375 654.261719 L 395.980469 654.261719 C 396.421875 654.261719 396.863281 654.21875 397.296875 654.132812 C 397.730469 654.046875 398.152344 653.917969 398.558594 653.75 C 398.96875 653.578125 399.355469 653.371094 399.722656 653.125 C 400.09375 652.878906 400.433594 652.601562 400.746094 652.289062 C 401.058594 651.976562 401.335938 651.636719 401.582031 651.265625 C 401.828125 650.898438 402.035156 650.511719 402.207031 650.101562 C 402.375 649.695312 402.503906 649.273438 402.589844 648.839844 C 402.675781 648.40625 402.71875 647.964844 402.71875 647.523438 L 402.71875 636.742188 C 402.71875 636.5625 402.683594 636.390625 402.617188 636.226562 C 402.546875 636.0625 402.449219 635.917969 402.324219 635.789062 C 402.199219 635.664062 402.050781 635.566406 401.886719 635.496094 C 401.722656 635.429688 401.550781 635.394531 401.371094 635.394531 C 401.191406 635.394531 401.019531 635.429688 400.855469 635.496094 C 400.691406 635.566406 400.546875 635.664062 400.417969 635.789062 C 400.292969 635.917969 400.195312 636.0625 400.125 636.226562 C 400.058594 636.390625 400.023438 636.5625 400.023438 636.742188 L 400.023438 641.582031 L 395.589844 637.132812 C 395.460938 637.011719 395.316406 636.914062 395.148438 636.847656 C 394.984375 636.78125 394.8125 636.75 394.632812 636.75 C 394.457031 636.75 394.285156 636.78125 394.117188 636.847656 C 393.953125 636.914062 393.804688 637.011719 393.675781 637.132812 L 384.511719 646.324219 L 372.640625 634.4375 C 372.511719 634.3125 372.367188 634.214844 372.199219 634.148438 C 372.035156 634.078125 371.863281 634.042969 371.683594 634.042969 C 371.503906 634.042969 371.332031 634.078125 371.164062 634.148438 C 371 634.214844 370.851562 634.3125 370.726562 634.4375 L 355.941406 649.234375 C 355.6875 648.695312 355.554688 648.125 355.550781 647.523438 L 355.550781 627.308594 C 355.550781 627.042969 355.578125 626.78125 355.632812 626.519531 C 355.683594 626.261719 355.761719 626.007812 355.863281 625.765625 C 355.964844 625.519531 356.089844 625.285156 356.238281 625.066406 C 356.382812 624.84375 356.550781 624.640625 356.738281 624.453125 C 356.925781 624.265625 357.128906 624.097656 357.351562 623.953125 C 357.570312 623.804688 357.804688 623.679688 358.050781 623.578125 C 358.292969 623.476562 358.546875 623.398438 358.804688 623.347656 C 359.066406 623.292969 359.328125 623.265625 359.59375 623.265625 L 395.980469 623.265625 C 396.246094 623.265625 396.507812 623.292969 396.769531 623.347656 C 397.027344 623.398438 397.28125 623.476562 397.527344 623.578125 C 397.769531 623.679688 398.003906 623.804688 398.222656 623.953125 C 398.445312 624.097656 398.648438 624.265625 398.835938 624.453125 C 399.023438 624.640625 399.191406 624.84375 399.339844 625.066406 C 399.488281 625.285156 399.613281 625.519531 399.714844 625.765625 C 399.816406 626.007812 399.890625 626.261719 399.945312 626.519531 C 399.996094 626.78125 400.023438 627.042969 400.023438 627.308594 L 400.023438 630.003906 C 400.023438 630.183594 400.058594 630.355469 400.128906 630.519531 C 400.195312 630.683594 400.292969 630.832031 400.421875 630.957031 C 400.546875 631.082031 400.691406 631.179688 400.855469 631.25 C 401.023438 631.316406 401.191406 631.351562 401.371094 631.351562 L 432.367188 631.351562 C 432.808594 631.351562 433.25 631.308594 433.683594 631.222656 C 434.117188 631.136719 434.539062 631.007812 434.945312 630.839844 C 435.355469 630.667969 435.742188 630.460938 436.109375 630.214844 C 436.480469 629.96875 436.820312 629.691406 437.132812 629.378906 C 437.445312 629.066406 437.722656 628.726562 437.96875 628.355469 C 438.214844 627.988281 438.421875 627.601562 438.59375 627.191406 C 438.761719 626.785156 438.890625 626.363281 438.976562 625.929688 C 439.0625 625.496094 439.105469 625.054688 439.105469 624.613281 L 439.105469 603.050781 C 439.105469 602.609375 439.0625 602.171875 438.976562 601.738281 C 438.890625 601.304688 438.761719 600.882812 438.59375 600.472656 C 438.421875 600.066406 438.214844 599.675781 437.96875 599.308594 C 437.722656 598.941406 437.445312 598.601562 437.132812 598.289062 C 436.820312 597.976562 436.480469 597.695312 436.109375 597.449219 C 435.742188 597.203125 435.355469 596.996094 434.945312 596.828125 C 434.539062 596.65625 434.117188 596.53125 433.683594 596.441406 C 433.25 596.355469 432.808594 596.3125 432.367188 596.3125 Z M 394.632812 639.992188 L 400.023438 645.382812 L 400.023438 647.523438 C 400.023438 647.789062 399.996094 648.050781 399.945312 648.3125 C 399.890625 648.570312 399.816406 648.824219 399.714844 649.070312 C 399.613281 649.316406 399.488281 649.546875 399.339844 649.765625 C 399.191406 649.988281 399.023438 650.191406 398.835938 650.378906 C 398.648438 650.566406 398.445312 650.734375 398.222656 650.882812 C 398.003906 651.03125 397.769531 651.15625 397.527344 651.257812 C 397.28125 651.359375 397.027344 651.433594 396.769531 651.488281 C 396.507812 651.539062 396.246094 651.566406 395.980469 651.566406 L 389.753906 651.566406 L 386.414062 648.226562 Z M 371.683594 637.296875 L 385.953125 651.566406 L 359.59375 651.566406 C 358.976562 651.5625 358.394531 651.421875 357.84375 651.148438 Z M 371.683594 637.296875 " fill-opacity="1" fill-rule="nonzero"/></g><path fill="#000000" d="M 423.945312 604.183594 C 423.421875 603.800781 422.835938 603.558594 422.195312 603.460938 C 421.550781 603.363281 420.921875 603.421875 420.304688 603.632812 L 407.894531 607.769531 L 404.066406 607.769531 C 403.800781 607.769531 403.539062 607.796875 403.277344 607.847656 C 403.019531 607.898438 402.765625 607.976562 402.523438 608.078125 C 402.277344 608.179688 402.042969 608.304688 401.824219 608.453125 C 401.601562 608.601562 401.398438 608.769531 401.210938 608.957031 C 401.023438 609.144531 400.855469 609.347656 400.710938 609.566406 C 400.5625 609.789062 400.4375 610.019531 400.335938 610.265625 C 400.234375 610.511719 400.15625 610.761719 400.105469 611.023438 C 400.050781 611.285156 400.023438 611.546875 400.023438 611.8125 L 400.023438 613.160156 C 400.027344 613.621094 400.101562 614.066406 400.257812 614.5 C 400.410156 614.9375 400.632812 615.332031 400.921875 615.691406 C 401.210938 616.050781 401.550781 616.351562 401.941406 616.59375 C 402.335938 616.835938 402.753906 617.007812 403.203125 617.109375 L 403.785156 621.757812 C 403.847656 622.246094 403.996094 622.707031 404.226562 623.140625 C 404.457031 623.574219 404.757812 623.953125 405.128906 624.277344 C 405.496094 624.601562 405.910156 624.851562 406.371094 625.027344 C 406.832031 625.199219 407.308594 625.289062 407.800781 625.289062 L 409.457031 625.289062 C 409.636719 625.289062 409.808594 625.253906 409.972656 625.183594 C 410.136719 625.117188 410.285156 625.019531 410.410156 624.890625 C 410.535156 624.765625 410.632812 624.621094 410.703125 624.457031 C 410.769531 624.289062 410.804688 624.117188 410.804688 623.941406 L 410.804688 618.171875 L 420.304688 621.339844 C 420.921875 621.539062 421.550781 621.589844 422.191406 621.492188 C 422.832031 621.394531 423.414062 621.160156 423.945312 620.785156 C 424.476562 620.410156 424.890625 619.933594 425.1875 619.355469 C 425.488281 618.777344 425.632812 618.164062 425.628906 617.511719 L 425.628906 607.457031 C 425.632812 606.808594 425.488281 606.191406 425.1875 605.613281 C 424.890625 605.035156 424.476562 604.558594 423.945312 604.183594 Z M 404.066406 614.507812 C 403.886719 614.507812 403.71875 614.472656 403.550781 614.402344 C 403.386719 614.335938 403.242188 614.238281 403.117188 614.109375 C 402.988281 613.984375 402.890625 613.839844 402.824219 613.675781 C 402.753906 613.507812 402.71875 613.335938 402.71875 613.160156 L 402.71875 611.8125 C 402.71875 611.632812 402.753906 611.460938 402.824219 611.296875 C 402.890625 611.132812 402.988281 610.984375 403.117188 610.859375 C 403.242188 610.734375 403.386719 610.636719 403.550781 610.566406 C 403.71875 610.5 403.886719 610.464844 404.066406 610.464844 L 406.761719 610.464844 L 406.761719 614.507812 Z M 408.109375 622.59375 C 407.328125 622.59375 406.574219 622.296875 406.453125 621.421875 L 405.925781 617.203125 L 407.894531 617.203125 L 408.109375 617.269531 Z M 422.933594 617.511719 C 422.9375 617.976562 422.746094 618.339844 422.367188 618.605469 C 421.996094 618.878906 421.589844 618.9375 421.15625 618.777344 L 409.457031 614.882812 L 409.457031 610.085938 L 421.15625 606.191406 C 421.589844 606.035156 421.996094 606.09375 422.367188 606.367188 C 422.746094 606.632812 422.9375 606.996094 422.933594 607.457031 Z M 422.933594 617.511719 " fill-opacity="1" fill-rule="nonzero"/><path fill="#000000" d="M 431.019531 615.179688 L 431.019531 609.789062 C 431.019531 609.609375 430.984375 609.4375 430.917969 609.273438 C 430.847656 609.109375 430.75 608.964844 430.625 608.835938 C 430.5 608.710938 430.351562 608.613281 430.1875 608.542969 C 430.023438 608.476562 429.851562 608.441406 429.671875 608.441406 C 429.492188 608.441406 429.320312 608.476562 429.15625 608.542969 C 428.992188 608.613281 428.847656 608.710938 428.71875 608.835938 C 428.59375 608.964844 428.496094 609.109375 428.425781 609.273438 C 428.359375 609.4375 428.324219 609.609375 428.324219 609.789062 L 428.324219 615.179688 C 428.324219 615.359375 428.359375 615.53125 428.425781 615.695312 C 428.496094 615.859375 428.59375 616.007812 428.71875 616.132812 C 428.847656 616.261719 428.992188 616.355469 429.15625 616.425781 C 429.320312 616.492188 429.492188 616.527344 429.671875 616.527344 C 429.851562 616.527344 430.023438 616.492188 430.1875 616.425781 C 430.351562 616.355469 430.5 616.261719 430.625 616.132812 C 430.75 616.007812 430.847656 615.859375 430.917969 615.695312 C 430.984375 615.53125 431.019531 615.359375 431.019531 615.179688 Z M 431.019531 615.179688 " fill-opacity="1" fill-rule="nonzero"/><path fill="#000000" d="M 386.546875 625.960938 C 386.28125 625.960938 386.019531 625.988281 385.757812 626.039062 C 385.5 626.089844 385.246094 626.167969 385 626.269531 C 384.753906 626.371094 384.523438 626.496094 384.300781 626.644531 C 384.082031 626.789062 383.875 626.957031 383.6875 627.144531 C 383.5 627.332031 383.332031 627.539062 383.1875 627.757812 C 383.039062 627.980469 382.914062 628.210938 382.8125 628.457031 C 382.710938 628.703125 382.632812 628.957031 382.582031 629.214844 C 382.53125 629.476562 382.503906 629.738281 382.503906 630.003906 C 382.503906 630.269531 382.53125 630.53125 382.582031 630.792969 C 382.632812 631.054688 382.710938 631.304688 382.8125 631.550781 C 382.914062 631.796875 383.039062 632.03125 383.1875 632.25 C 383.332031 632.472656 383.5 632.675781 383.6875 632.863281 C 383.875 633.050781 384.082031 633.21875 384.300781 633.367188 C 384.523438 633.515625 384.753906 633.636719 385 633.738281 C 385.246094 633.839844 385.5 633.917969 385.757812 633.96875 C 386.019531 634.023438 386.28125 634.046875 386.546875 634.046875 C 386.8125 634.046875 387.074219 634.023438 387.335938 633.96875 C 387.597656 633.917969 387.847656 633.839844 388.09375 633.738281 C 388.339844 633.636719 388.574219 633.515625 388.792969 633.367188 C 389.015625 633.21875 389.21875 633.050781 389.40625 632.863281 C 389.59375 632.675781 389.761719 632.472656 389.910156 632.25 C 390.058594 632.03125 390.179688 631.796875 390.28125 631.550781 C 390.382812 631.304688 390.460938 631.054688 390.511719 630.792969 C 390.566406 630.53125 390.589844 630.269531 390.589844 630.003906 C 390.589844 629.738281 390.5625 629.476562 390.511719 629.214844 C 390.457031 628.957031 390.382812 628.703125 390.28125 628.460938 C 390.179688 628.214844 390.054688 627.980469 389.90625 627.761719 C 389.757812 627.539062 389.589844 627.335938 389.402344 627.148438 C 389.214844 626.960938 389.011719 626.792969 388.789062 626.648438 C 388.570312 626.5 388.335938 626.375 388.09375 626.273438 C 387.847656 626.171875 387.59375 626.09375 387.335938 626.042969 C 387.074219 625.988281 386.8125 625.960938 386.546875 625.960938 Z M 386.546875 631.351562 C 386.367188 631.351562 386.195312 631.316406 386.03125 631.25 C 385.867188 631.179688 385.722656 631.082031 385.59375 630.957031 C 385.46875 630.832031 385.371094 630.683594 385.300781 630.519531 C 385.234375 630.355469 385.199219 630.183594 385.199219 630.003906 C 385.199219 629.824219 385.234375 629.652344 385.300781 629.488281 C 385.371094 629.324219 385.46875 629.179688 385.59375 629.050781 C 385.722656 628.925781 385.867188 628.828125 386.03125 628.757812 C 386.195312 628.691406 386.367188 628.65625 386.546875 628.65625 C 386.726562 628.65625 386.898438 628.691406 387.0625 628.757812 C 387.226562 628.828125 387.375 628.925781 387.5 629.050781 C 387.625 629.179688 387.722656 629.324219 387.792969 629.488281 C 387.859375 629.652344 387.894531 629.824219 387.894531 630.003906 C 387.894531 630.183594 387.859375 630.355469 387.792969 630.519531 C 387.722656 630.683594 387.625 630.832031 387.5 630.957031 C 387.375 631.082031 387.226562 631.179688 387.0625 631.25 C 386.898438 631.316406 386.726562 631.351562 386.546875 631.351562 Z M 386.546875 631.351562 " fill-opacity="1" fill-rule="nonzero"/><g clip-path="url(#74509ea775)"><path fill="#000000" d="M 355.566406 601.710938 C 355.566406 601.890625 355.53125 602.0625 355.460938 602.230469 C 355.394531 602.394531 355.296875 602.542969 355.167969 602.667969 C 355.042969 602.796875 354.894531 602.894531 354.730469 602.960938 C 354.5625 603.03125 354.390625 603.066406 354.210938 603.066406 C 354.03125 603.066406 353.859375 603.03125 353.691406 602.960938 C 353.527344 602.894531 353.378906 602.796875 353.253906 602.667969 C 353.125 602.542969 353.027344 602.394531 352.960938 602.230469 C 352.890625 602.0625 352.855469 601.890625 352.855469 601.710938 C 352.855469 601.53125 352.890625 601.359375 352.960938 601.191406 C 353.027344 601.027344 353.125 600.878906 353.253906 600.753906 C 353.378906 600.625 353.527344 600.527344 353.691406 600.460938 C 353.859375 600.390625 354.03125 600.355469 354.210938 600.355469 C 354.390625 600.355469 354.5625 600.390625 354.730469 600.460938 C 354.894531 600.527344 355.042969 600.625 355.167969 600.753906 C 355.296875 600.878906 355.394531 601.027344 355.460938 601.191406 C 355.53125 601.359375 355.566406 601.53125 355.566406 601.710938 Z M 355.566406 601.710938 " fill-opacity="1" fill-rule="nonzero"/></g></svg>