<svg xmlns="http://www.w3.org/2000/svg" xmlns:xlink="http://www.w3.org/1999/xlink" width="1080" zoomAndPan="magnify" viewBox="0 0 810 809.999993" height="1080" preserveAspectRatio="xMidYMid meet" version="1.0"><defs><clipPath id="cca1a1605e"><path d="M 348.859375 654.074219 L 442.609375 654.074219 L 442.609375 740.324219 L 348.859375 740.324219 Z M 348.859375 654.074219 " clip-rule="nonzero"/></clipPath></defs><rect x="-81" width="972" fill="#ffffff" y="-80.999999" height="971.999992" fill-opacity="1"/><rect x="-81" width="972" fill="#ffffff" y="-80.999999" height="971.999992" fill-opacity="1"/><g clip-path="url(#cca1a1605e)"><path fill="#000000" d="M 430.613281 675.316406 C 428.277344 675.316406 426.105469 676.003906 424.261719 677.164062 L 418.421875 669.03125 C 420.160156 667.492188 421.28125 665.269531 421.28125 662.761719 C 421.28125 658.140625 417.542969 654.382812 412.945312 654.382812 C 408.347656 654.382812 404.609375 658.140625 404.609375 662.761719 C 404.609375 666.117188 406.589844 668.996094 409.425781 670.332031 L 407.109375 676.898438 L 396.773438 672.441406 C 397.222656 671.160156 397.464844 669.816406 397.464844 668.4375 C 397.464844 661.789062 392.082031 656.378906 385.46875 656.378906 C 378.851562 656.378906 373.472656 661.789062 373.472656 668.4375 C 373.472656 670.089844 373.804688 671.660156 374.402344 673.09375 L 364.242188 678.191406 C 362.765625 675.824219 360.171875 674.238281 357.195312 674.238281 C 352.597656 674.238281 348.859375 677.996094 348.859375 682.617188 C 348.859375 687.238281 352.597656 691 357.195312 691 C 357.484375 691 357.757812 690.941406 358.039062 690.914062 L 359.984375 700.691406 C 354.886719 702.082031 351.121094 706.761719 351.121094 712.320312 C 351.121094 718.972656 356.5 724.382812 363.113281 724.382812 C 366.503906 724.382812 369.566406 722.953125 371.75 720.671875 L 379.277344 727.042969 C 378.347656 728.394531 377.792969 730.03125 377.792969 731.796875 C 377.792969 736.417969 381.535156 740.175781 386.128906 740.175781 C 390.726562 740.175781 394.464844 736.417969 394.464844 731.796875 C 394.464844 728.648438 392.710938 725.9375 390.152344 724.503906 L 393.441406 716.917969 C 395.257812 717.613281 397.21875 718.011719 399.277344 718.011719 C 408.363281 718.011719 415.753906 710.578125 415.753906 701.441406 C 415.753906 699.402344 415.367188 697.453125 414.695312 695.648438 L 420.164062 693.28125 C 421.917969 696.40625 425.011719 698.664062 428.660156 699.265625 L 427.753906 708.59375 C 427.75 708.59375 427.746094 708.59375 427.742188 708.59375 C 423.144531 708.59375 419.40625 712.355469 419.40625 716.976562 C 419.40625 721.597656 423.144531 725.355469 427.742188 725.355469 C 432.335938 725.355469 436.074219 721.597656 436.074219 716.976562 C 436.074219 712.902344 433.171875 709.507812 429.335938 708.757812 L 430.242188 699.421875 C 430.367188 699.425781 430.488281 699.441406 430.613281 699.441406 C 437.226562 699.441406 442.609375 694.03125 442.609375 687.378906 C 442.609375 680.730469 437.226562 675.316406 430.613281 675.316406 Z M 423.832031 722.480469 C 424.511719 721.695312 425.519531 720.972656 426.1875 720.835938 C 426.828125 720.707031 427.320312 720.246094 427.460938 719.648438 C 427.511719 719.457031 427.519531 719.207031 427.535156 718.714844 C 427.542969 718.460938 427.429688 718.214844 427.230469 718.058594 C 426.808594 717.730469 426.445312 717.199219 426.25 716.640625 C 426.179688 716.449219 426.042969 716.292969 425.875 716.199219 C 425.867188 716.175781 425.863281 716.148438 425.859375 716.125 C 425.996094 715.976562 426.078125 715.773438 426.078125 715.558594 C 426.078125 714.640625 426.074219 713.847656 426.410156 713.507812 C 426.628906 713.285156 427.074219 713.171875 427.753906 713.171875 C 428.40625 713.171875 428.851562 713.285156 429.070312 713.507812 C 429.40625 713.847656 429.40625 714.640625 429.402344 715.578125 C 429.402344 715.792969 429.484375 715.988281 429.621094 716.132812 C 429.617188 716.152344 429.613281 716.179688 429.609375 716.199219 C 429.4375 716.292969 429.300781 716.445312 429.234375 716.640625 C 429.039062 717.199219 428.671875 717.730469 428.253906 718.058594 C 428.050781 718.214844 427.941406 718.519531 427.949219 718.773438 C 427.960938 719.207031 427.972656 719.457031 428.019531 719.640625 C 428.164062 720.25 428.65625 720.710938 429.292969 720.835938 C 429.964844 720.972656 430.96875 721.695312 431.652344 722.480469 C 430.546875 723.277344 429.203125 723.757812 427.742188 723.757812 C 426.28125 723.757812 424.9375 723.277344 423.832031 722.480469 Z M 434.488281 716.976562 C 434.488281 718.664062 433.847656 720.191406 432.828125 721.382812 C 432.003906 720.460938 430.714844 719.496094 429.5625 719.273438 C 429.554688 719.21875 429.550781 719.140625 429.546875 719.042969 C 429.980469 718.621094 430.347656 718.085938 430.601562 717.507812 C 430.894531 717.292969 431.113281 716.914062 431.199219 716.429688 C 431.277344 715.960938 431.191406 715.535156 430.992188 715.234375 C 430.988281 714.136719 430.925781 713.113281 430.195312 712.378906 C 429.660156 711.839844 428.863281 711.574219 427.726562 711.574219 C 426.621094 711.574219 425.820312 711.839844 425.285156 712.378906 C 424.558594 713.113281 424.492188 714.128906 424.492188 715.234375 C 424.289062 715.535156 424.207031 715.964844 424.285156 716.441406 C 424.371094 716.921875 424.589844 717.296875 424.882812 717.507812 C 425.132812 718.085938 425.5 718.617188 425.929688 719.039062 C 425.921875 719.132812 425.90625 719.214844 425.875 719.269531 C 424.757812 719.496094 423.476562 720.457031 422.65625 721.382812 C 421.632812 720.191406 420.996094 718.664062 420.996094 716.976562 C 420.996094 713.234375 424.023438 710.191406 427.742188 710.191406 C 431.460938 710.191406 434.488281 713.234375 434.488281 716.976562 Z M 412.433594 663.847656 C 412.015625 663.519531 411.648438 662.988281 411.453125 662.429688 C 411.382812 662.234375 411.25 662.082031 411.078125 661.988281 C 411.074219 661.964844 411.066406 661.9375 411.0625 661.914062 C 411.203125 661.761719 411.285156 661.5625 411.285156 661.347656 C 411.28125 660.429688 411.277344 659.636719 411.613281 659.296875 C 411.835938 659.074219 412.277344 658.960938 412.957031 658.960938 C 413.613281 658.960938 414.058594 659.074219 414.277344 659.296875 C 414.613281 659.636719 414.609375 660.429688 414.609375 661.367188 C 414.609375 661.578125 414.691406 661.773438 414.828125 661.917969 C 414.820312 661.941406 414.820312 661.96875 414.8125 661.988281 C 414.640625 662.082031 414.503906 662.234375 414.4375 662.429688 C 414.242188 662.988281 413.875 663.519531 413.457031 663.847656 C 413.257812 664.003906 413.144531 664.246094 413.152344 664.5 C 413.164062 665.007812 413.175781 665.246094 413.222656 665.425781 C 413.371094 666.035156 413.859375 666.496094 414.496094 666.625 C 415.167969 666.761719 416.175781 667.484375 416.855469 668.269531 C 415.75 669.066406 414.40625 669.546875 412.945312 669.546875 C 411.484375 669.546875 410.140625 669.066406 409.035156 668.269531 C 409.714844 667.484375 410.722656 666.761719 411.394531 666.625 C 412.035156 666.496094 412.523438 666.035156 412.667969 665.429688 C 412.714844 665.246094 412.726562 665.007812 412.738281 664.5 C 412.746094 664.246094 412.632812 664.003906 412.433594 663.847656 Z M 406.199219 662.761719 C 406.199219 659.023438 409.226562 655.980469 412.945312 655.980469 C 416.664062 655.980469 419.691406 659.023438 419.691406 662.761719 C 419.691406 664.453125 419.050781 665.980469 418.03125 667.171875 C 417.207031 666.246094 415.917969 665.285156 414.769531 665.070312 C 414.757812 665.011719 414.753906 664.929688 414.75 664.832031 C 415.183594 664.410156 415.550781 663.875 415.804688 663.292969 C 416.097656 663.078125 416.316406 662.703125 416.40625 662.222656 C 416.480469 661.75 416.398438 661.324219 416.195312 661.019531 C 416.195312 659.921875 416.128906 658.902344 415.402344 658.167969 C 414.867188 657.628906 414.066406 657.363281 412.933594 657.363281 C 411.824219 657.363281 411.023438 657.628906 410.488281 658.167969 C 409.765625 658.902344 409.699219 659.917969 409.695312 661.019531 C 409.492188 661.324219 409.410156 661.753906 409.488281 662.230469 C 409.574219 662.707031 409.792969 663.085938 410.085938 663.296875 C 410.339844 663.875 410.703125 664.40625 411.136719 664.824219 C 411.125 664.921875 411.109375 665.007812 411.082031 665.058594 C 409.964844 665.285156 408.683594 666.246094 407.859375 667.171875 C 406.839844 665.980469 406.199219 664.453125 406.199219 662.761719 Z M 410.925781 670.867188 C 411.574219 671.03125 412.246094 671.144531 412.945312 671.144531 C 414.480469 671.144531 415.898438 670.695312 417.136719 669.964844 L 422.96875 678.09375 C 421.59375 679.238281 420.488281 680.691406 419.730469 682.335938 L 408.570312 677.527344 Z M 399.277344 684.875 C 390.191406 684.875 382.796875 692.308594 382.796875 701.441406 C 382.796875 702.8125 382.984375 704.140625 383.296875 705.417969 L 374.339844 708.109375 C 373.382812 705.539062 371.582031 703.386719 369.273438 701.988281 L 380.722656 679.511719 C 382.179688 680.144531 383.78125 680.5 385.46875 680.5 C 390.003906 680.5 394.089844 677.925781 396.128906 673.902344 L 406.574219 678.40625 L 404.039062 685.585938 C 402.527344 685.128906 400.933594 684.875 399.277344 684.875 Z M 384.46875 670.355469 C 383.792969 669.824219 383.199219 668.96875 382.886719 668.070312 C 382.800781 667.820312 382.601562 667.640625 382.359375 667.570312 C 382.332031 667.511719 382.296875 667.425781 382.277344 667.308594 C 382.257812 667.183594 382.257812 667.085938 382.265625 667.019531 C 382.480469 666.867188 382.613281 666.605469 382.613281 666.332031 C 382.609375 665.101562 382.609375 664.035156 382.96875 663.359375 C 383.203125 662.917969 383.699219 662.40625 385.484375 662.402344 C 387.238281 662.40625 387.730469 662.917969 387.96875 663.359375 C 388.328125 664.035156 388.324219 665.101562 388.320312 666.367188 C 388.320312 666.640625 388.457031 666.882812 388.667969 667.027344 C 388.675781 667.09375 388.679688 667.183594 388.660156 667.296875 C 388.636719 667.417969 388.605469 667.511719 388.574219 667.570312 C 388.335938 667.640625 388.136719 667.820312 388.046875 668.070312 C 387.734375 668.96875 387.140625 669.824219 386.464844 670.355469 C 386.265625 670.511719 386.152344 670.777344 386.160156 671.027344 C 386.175781 671.660156 386.191406 672.058594 386.253906 672.304688 C 386.4375 673.0625 387.046875 673.632812 387.847656 673.792969 C 389.003906 674.027344 390.804688 675.332031 391.851562 676.671875 C 390.058594 678.074219 387.835938 678.902344 385.46875 678.902344 C 383.058594 678.902344 380.84375 678.066406 379.078125 676.679688 C 380.125 675.335938 381.929688 674.027344 383.085938 673.792969 C 383.886719 673.632812 384.5 673.0625 384.683594 672.308594 C 384.746094 672.058594 384.757812 671.660156 384.773438 671.007812 C 384.78125 670.753906 384.667969 670.511719 384.46875 670.355469 Z M 385.46875 657.976562 C 391.207031 657.976562 395.875 662.667969 395.875 668.4375 C 395.875 669.871094 395.59375 671.257812 395.035156 672.5625 C 394.542969 673.710938 393.847656 674.722656 393.027344 675.597656 C 391.71875 673.964844 389.679688 672.535156 388.160156 672.226562 C 388.089844 672.214844 387.847656 672.148438 387.796875 671.929688 C 387.773438 671.8125 387.765625 671.597656 387.757812 671.347656 C 388.445312 670.71875 389.027344 669.882812 389.40625 668.96875 C 389.800781 668.722656 390.105469 668.226562 390.226562 667.566406 C 390.332031 666.90625 390.207031 666.332031 389.910156 665.96875 C 389.910156 664.71875 389.867188 663.546875 389.371094 662.609375 C 388.726562 661.398438 387.457031 660.808594 385.449219 660.804688 C 383.476562 660.808594 382.207031 661.398438 381.566406 662.609375 C 381.070312 663.542969 381.027344 664.703125 381.023438 665.972656 C 380.726562 666.332031 380.601562 666.910156 380.710938 667.582031 C 380.828125 668.230469 381.132812 668.726562 381.527344 668.96875 C 381.910156 669.882812 382.488281 670.71875 383.175781 671.347656 C 383.171875 671.59375 383.160156 671.8125 383.140625 671.925781 C 383.085938 672.148438 382.84375 672.214844 382.773438 672.226562 C 381.253906 672.535156 379.210938 673.96875 377.902344 675.605469 C 376.144531 673.730469 375.058594 671.210938 375.058594 668.4375 C 375.058594 662.667969 379.730469 657.976562 385.46875 657.976562 Z M 350.449219 682.617188 C 350.449219 678.878906 353.476562 675.835938 357.195312 675.835938 C 360.914062 675.835938 363.941406 678.878906 363.941406 682.617188 C 363.941406 684.308594 363.300781 685.835938 362.28125 687.023438 C 361.457031 686.101562 360.167969 685.140625 359.019531 684.921875 C 359.007812 684.867188 359.003906 684.785156 359 684.6875 C 359.433594 684.265625 359.800781 683.730469 360.054688 683.148438 C 360.347656 682.933594 360.566406 682.554688 360.652344 682.074219 C 360.730469 681.59375 360.648438 681.167969 360.445312 680.867188 C 360.433594 679.234375 360.242188 677.222656 357.179688 677.21875 C 355.75 677.21875 354.820312 677.664062 354.339844 678.570312 C 353.984375 679.234375 353.945312 680.023438 353.945312 680.878906 C 353.742188 681.179688 353.660156 681.609375 353.738281 682.085938 C 353.824219 682.5625 354.042969 682.9375 354.335938 683.152344 C 354.585938 683.730469 354.953125 684.261719 355.382812 684.679688 C 355.375 684.777344 355.359375 684.863281 355.328125 684.914062 C 354.214844 685.140625 352.929688 686.101562 352.109375 687.027344 C 351.085938 685.835938 350.449219 684.308594 350.449219 682.617188 Z M 353.285156 688.125 C 353.964844 687.339844 354.972656 686.617188 355.640625 686.480469 C 356.28125 686.351562 356.769531 685.894531 356.917969 685.28125 C 356.964844 685.097656 356.972656 684.847656 356.988281 684.355469 C 356.996094 684.101562 356.882812 683.859375 356.683594 683.703125 C 356.265625 683.375 355.898438 682.84375 355.703125 682.285156 C 355.632812 682.089844 355.496094 681.9375 355.328125 681.84375 C 355.320312 681.820312 355.316406 681.792969 355.3125 681.769531 C 355.449219 681.617188 355.53125 681.417969 355.53125 681.203125 C 355.53125 680.441406 355.527344 679.722656 355.738281 679.324219 C 355.8125 679.183594 356.007812 678.816406 357.207031 678.816406 C 358.800781 678.816406 358.859375 679.273438 358.855469 681.222656 C 358.855469 681.433594 358.9375 681.628906 359.074219 681.773438 C 359.070312 681.796875 359.066406 681.820312 359.0625 681.84375 C 358.890625 681.9375 358.753906 682.089844 358.6875 682.285156 C 358.492188 682.84375 358.125 683.375 357.707031 683.703125 C 357.507812 683.859375 357.394531 684.117188 357.402344 684.375 C 357.414062 684.828125 357.425781 685.09375 357.472656 685.28125 C 357.617188 685.890625 358.105469 686.351562 358.746094 686.480469 C 359.417969 686.617188 360.421875 687.339844 361.105469 688.125 C 360 688.921875 358.65625 689.402344 357.195312 689.402344 C 355.734375 689.402344 354.390625 688.921875 353.285156 688.125 Z M 359.597656 690.601562 C 363.015625 689.558594 365.527344 686.394531 365.527344 682.617188 C 365.527344 681.558594 365.3125 680.554688 364.953125 679.621094 L 375.125 674.519531 C 376.144531 676.265625 377.585938 677.726562 379.3125 678.769531 L 367.863281 701.25 C 366.40625 700.617188 364.800781 700.261719 363.113281 700.261719 C 362.582031 700.261719 362.058594 700.308594 361.542969 700.375 Z M 352.707031 712.320312 C 352.707031 706.550781 357.375 701.859375 363.113281 701.859375 C 368.851562 701.859375 373.523438 706.550781 373.523438 712.320312 C 373.523438 715.09375 372.4375 717.613281 370.679688 719.488281 C 369.371094 717.851562 367.328125 716.421875 365.808594 716.113281 C 365.738281 716.097656 365.496094 716.03125 365.445312 715.8125 C 365.421875 715.695312 365.410156 715.480469 365.40625 715.230469 C 366.09375 714.601562 366.675781 713.765625 367.054688 712.851562 C 367.449219 712.605469 367.753906 712.109375 367.871094 711.449219 C 367.980469 710.789062 367.855469 710.214844 367.558594 709.855469 C 367.558594 708.601562 367.515625 707.429688 367.015625 706.492188 C 366.375 705.28125 365.105469 704.691406 363.09375 704.6875 C 361.125 704.691406 359.855469 705.28125 359.210938 706.492188 C 358.71875 707.425781 358.671875 708.589844 358.671875 709.855469 C 358.375 710.21875 358.25 710.792969 358.359375 711.464844 C 358.476562 712.113281 358.78125 712.609375 359.175781 712.851562 C 359.554688 713.765625 360.136719 714.601562 360.824219 715.230469 C 360.816406 715.476562 360.808594 715.695312 360.785156 715.808594 C 360.734375 716.03125 360.492188 716.097656 360.417969 716.113281 C 358.902344 716.421875 356.855469 717.851562 355.550781 719.488281 C 353.792969 717.613281 352.707031 715.09375 352.707031 712.320312 Z M 356.726562 720.5625 C 357.773438 719.21875 359.574219 717.914062 360.734375 717.679688 C 361.535156 717.515625 362.144531 716.945312 362.328125 716.191406 C 362.390625 715.941406 362.40625 715.542969 362.421875 714.890625 C 362.429688 714.636719 362.316406 714.394531 362.117188 714.238281 C 361.441406 713.707031 360.847656 712.851562 360.535156 711.953125 C 360.445312 711.707031 360.246094 711.523438 360.007812 711.453125 C 359.980469 711.394531 359.945312 711.308594 359.925781 711.195312 C 359.902344 711.066406 359.90625 710.96875 359.914062 710.902344 C 360.125 710.75 360.261719 710.488281 360.261719 710.214844 C 360.257812 708.984375 360.253906 707.917969 360.613281 707.242188 C 360.851562 706.800781 361.34375 706.289062 363.132812 706.285156 C 364.882812 706.289062 365.378906 706.800781 365.613281 707.242188 C 365.972656 707.917969 365.972656 708.984375 365.96875 710.25 C 365.96875 710.523438 366.101562 710.765625 366.316406 710.910156 C 366.324219 710.976562 366.324219 711.066406 366.304688 711.179688 C 366.285156 711.304688 366.25 711.394531 366.222656 711.453125 C 365.980469 711.523438 365.78125 711.707031 365.695312 711.953125 C 365.382812 712.851562 364.789062 713.707031 364.113281 714.238281 C 363.914062 714.394531 363.800781 714.660156 363.808594 714.914062 C 363.824219 715.542969 363.835938 715.941406 363.898438 716.1875 C 364.082031 716.945312 364.695312 717.515625 365.496094 717.679688 C 366.652344 717.914062 368.457031 719.21875 369.503906 720.5625 C 367.738281 721.949219 365.523438 722.785156 363.113281 722.785156 C 360.707031 722.785156 358.492188 721.949219 356.726562 720.5625 Z M 382.21875 737.300781 C 382.902344 736.515625 383.90625 735.792969 384.574219 735.660156 C 385.21875 735.53125 385.707031 735.070312 385.851562 734.46875 C 385.898438 734.28125 385.90625 734.027344 385.921875 733.535156 C 385.929688 733.28125 385.816406 733.039062 385.617188 732.882812 C 385.199219 732.554688 384.832031 732.023438 384.636719 731.464844 C 384.570312 731.269531 384.433594 731.113281 384.261719 731.023438 C 384.257812 730.996094 384.253906 730.972656 384.246094 730.945312 C 384.386719 730.796875 384.46875 730.59375 384.46875 730.382812 C 384.464844 729.460938 384.464844 728.667969 384.796875 728.328125 C 385.019531 728.105469 385.460938 727.996094 386.140625 727.992188 C 386.796875 727.996094 387.238281 728.105469 387.460938 728.328125 C 387.796875 728.667969 387.792969 729.460938 387.789062 730.398438 C 387.789062 730.613281 387.871094 730.808594 388.007812 730.953125 C 388.007812 730.976562 388 731 387.996094 731.023438 C 387.824219 731.113281 387.691406 731.269531 387.621094 731.464844 C 387.425781 732.023438 387.058594 732.554688 386.640625 732.882812 C 386.441406 733.039062 386.332031 733.34375 386.335938 733.597656 C 386.351562 734.027344 386.359375 734.28125 386.40625 734.457031 C 386.550781 735.070312 387.039062 735.53125 387.683594 735.660156 C 388.351562 735.792969 389.359375 736.515625 390.042969 737.300781 C 388.9375 738.097656 387.589844 738.582031 386.128906 738.582031 C 384.667969 738.582031 383.324219 738.097656 382.21875 737.300781 Z M 392.875 731.796875 C 392.875 733.488281 392.234375 735.015625 391.214844 736.203125 C 390.394531 735.28125 389.105469 734.320312 387.953125 734.097656 C 387.945312 734.042969 387.9375 733.964844 387.933594 733.863281 C 388.367188 733.445312 388.734375 732.910156 388.988281 732.328125 C 389.28125 732.117188 389.503906 731.738281 389.585938 731.253906 C 389.664062 730.78125 389.582031 730.355469 389.378906 730.054688 C 389.375 728.957031 389.3125 727.9375 388.585938 727.203125 C 388.050781 726.660156 387.25 726.398438 386.113281 726.394531 C 385.007812 726.398438 384.210938 726.660156 383.671875 727.203125 C 382.949219 727.933594 382.882812 728.949219 382.878906 730.054688 C 382.675781 730.355469 382.59375 730.785156 382.671875 731.261719 C 382.757812 731.742188 382.976562 732.117188 383.273438 732.332031 C 383.523438 732.90625 383.886719 733.441406 384.320312 733.859375 C 384.308594 733.957031 384.292969 734.039062 384.261719 734.09375 C 383.148438 734.316406 381.863281 735.28125 381.042969 736.203125 C 380.023438 735.015625 379.382812 733.488281 379.382812 731.796875 C 379.382812 728.058594 382.410156 725.011719 386.128906 725.011719 C 389.847656 725.011719 392.875 728.058594 392.875 731.796875 Z M 388.699219 723.863281 C 387.882812 723.597656 387.03125 723.414062 386.128906 723.414062 C 383.859375 723.414062 381.804688 724.335938 380.300781 725.820312 L 372.769531 719.449219 C 374.234375 717.449219 375.109375 714.988281 375.109375 712.320312 C 375.109375 711.398438 374.996094 710.503906 374.800781 709.640625 L 383.753906 706.945312 C 385.191406 711.027344 388.167969 714.371094 391.984375 716.277344 Z M 389.855469 713.023438 C 389.886719 712.992188 389.925781 712.976562 389.953125 712.941406 C 391.457031 710.921875 394.117188 708.984375 395.875 708.628906 C 396.878906 708.429688 397.640625 707.71875 397.867188 706.78125 C 397.945312 706.472656 397.964844 705.949219 397.988281 705.03125 C 397.996094 704.777344 397.882812 704.535156 397.683594 704.378906 C 396.691406 703.597656 395.820312 702.347656 395.363281 701.035156 C 395.261719 700.746094 395.011719 700.546875 394.722656 700.507812 C 394.652344 700.414062 394.550781 700.207031 394.496094 699.914062 C 394.445312 699.605469 394.476562 699.371094 394.511719 699.261719 C 394.78125 699.121094 394.960938 698.816406 394.960938 698.5 C 394.957031 696.730469 394.953125 695.203125 395.496094 694.183594 C 395.835938 693.535156 396.601562 692.675781 399.300781 692.671875 C 401.949219 692.675781 402.714844 693.535156 403.054688 694.179688 C 403.597656 695.199219 403.59375 696.726562 403.589844 698.542969 C 403.589844 698.855469 403.773438 699.136719 404.042969 699.265625 C 404.074219 699.375 404.105469 699.605469 404.058594 699.902344 C 404.003906 700.207031 403.898438 700.414062 403.832031 700.507812 C 403.539062 700.546875 403.289062 700.746094 403.1875 701.035156 C 402.730469 702.347656 401.863281 703.597656 400.867188 704.378906 C 400.667969 704.535156 400.554688 704.777344 400.5625 705.027344 C 400.585938 705.910156 400.605469 706.464844 400.683594 706.777344 C 400.910156 707.71875 401.675781 708.429688 402.671875 708.628906 C 404.433594 708.984375 407.09375 710.921875 408.597656 712.941406 C 408.625 712.976562 408.664062 712.996094 408.695312 713.027344 C 406.125 715.140625 402.847656 716.414062 399.277344 716.414062 C 395.703125 716.414062 392.421875 715.140625 389.855469 713.023438 Z M 409.855469 711.960938 C 408.113281 709.640625 405.101562 707.492188 402.984375 707.0625 C 402.59375 706.984375 402.308594 706.734375 402.226562 706.398438 C 402.195312 706.257812 402.175781 705.792969 402.164062 705.375 C 403.164062 704.492188 404.007812 703.28125 404.539062 701.960938 C 405.054688 701.691406 405.46875 701.042969 405.621094 700.171875 C 405.769531 699.289062 405.59375 698.535156 405.179688 698.109375 C 405.179688 696.351562 405.136719 694.707031 404.460938 693.429688 C 403.617188 691.847656 401.933594 691.078125 399.246094 691.074219 C 396.617188 691.078125 394.929688 691.847656 394.09375 693.429688 C 393.417969 694.699219 393.371094 696.335938 393.371094 698.113281 C 392.960938 698.539062 392.785156 699.292969 392.929688 700.1875 C 393.085938 701.046875 393.496094 701.691406 394.015625 701.960938 C 394.546875 703.28125 395.386719 704.492188 396.390625 705.375 C 396.375 705.792969 396.359375 706.261719 396.328125 706.398438 C 396.246094 706.734375 395.960938 706.984375 395.566406 707.0625 C 393.445312 707.492188 390.4375 709.640625 388.699219 711.960938 C 386.035156 709.257812 384.386719 705.539062 384.386719 701.441406 C 384.386719 693.1875 391.066406 686.472656 399.277344 686.472656 C 407.488281 686.472656 414.164062 693.1875 414.164062 701.441406 C 414.164062 705.539062 412.515625 709.257812 409.855469 711.960938 Z M 414.0625 694.179688 C 412.296875 690.554688 409.261719 687.667969 405.53125 686.125 L 408.039062 679.035156 L 419.148438 683.824219 C 418.804688 684.949219 418.617188 686.140625 418.617188 687.378906 C 418.617188 688.957031 418.929688 690.457031 419.476562 691.839844 Z M 424.222656 695.621094 C 425.269531 694.277344 427.074219 692.96875 428.230469 692.734375 C 429.035156 692.574219 429.644531 692 429.828125 691.242188 C 429.890625 690.996094 429.90625 690.589844 429.921875 689.949219 C 429.929688 689.695312 429.816406 689.453125 429.617188 689.296875 C 428.941406 688.765625 428.347656 687.910156 428.035156 687.011719 C 427.945312 686.761719 427.746094 686.582031 427.503906 686.511719 C 427.476562 686.453125 427.445312 686.367188 427.421875 686.25 C 427.402344 686.125 427.40625 686.027344 427.414062 685.960938 C 427.625 685.808594 427.757812 685.550781 427.757812 685.277344 C 427.753906 684.042969 427.753906 682.980469 428.113281 682.300781 C 428.347656 681.855469 428.84375 681.347656 430.632812 681.34375 C 432.382812 681.347656 432.878906 681.855469 433.113281 682.300781 C 433.472656 682.980469 433.46875 684.042969 433.46875 685.308594 C 433.46875 685.578125 433.601562 685.824219 433.816406 685.96875 C 433.820312 686.03125 433.824219 686.125 433.804688 686.238281 C 433.78125 686.363281 433.75 686.453125 433.71875 686.511719 C 433.480469 686.582031 433.28125 686.761719 433.191406 687.011719 C 432.878906 687.910156 432.285156 688.765625 431.609375 689.296875 C 431.410156 689.453125 431.296875 689.695312 431.304688 689.949219 C 431.320312 690.589844 431.335938 690.996094 431.398438 691.242188 C 431.582031 692 432.191406 692.574219 432.996094 692.734375 C 434.152344 692.96875 435.957031 694.277344 437 695.621094 C 435.234375 697.007812 433.019531 697.84375 430.613281 697.84375 C 428.203125 697.84375 425.988281 697.007812 424.222656 695.621094 Z M 438.175781 694.542969 C 436.871094 692.90625 434.828125 691.476562 433.308594 691.167969 C 433.234375 691.15625 432.996094 691.089844 432.941406 690.871094 C 432.917969 690.757812 432.910156 690.535156 432.902344 690.289062 C 433.589844 689.660156 434.171875 688.820312 434.550781 687.910156 C 434.949219 687.667969 435.253906 687.167969 435.371094 686.511719 C 435.480469 685.847656 435.355469 685.273438 435.054688 684.910156 C 435.054688 683.660156 435.015625 682.488281 434.515625 681.550781 C 433.871094 680.339844 432.601562 679.75 430.59375 679.746094 C 428.621094 679.75 427.355469 680.339844 426.710938 681.550781 C 426.214844 682.484375 426.171875 683.648438 426.167969 684.910156 C 425.871094 685.273438 425.746094 685.851562 425.859375 686.519531 C 425.972656 687.171875 426.277344 687.667969 426.675781 687.910156 C 427.054688 688.820312 427.636719 689.660156 428.324219 690.289062 C 428.316406 690.535156 428.308594 690.753906 428.285156 690.867188 C 428.230469 691.089844 427.992188 691.15625 427.917969 691.167969 C 426.398438 691.476562 424.355469 692.90625 423.050781 694.542969 C 421.292969 692.671875 420.207031 690.152344 420.207031 687.378906 C 420.207031 681.609375 424.875 676.914062 430.613281 676.914062 C 436.351562 676.914062 441.019531 681.609375 441.019531 687.378906 C 441.019531 690.152344 439.933594 692.667969 438.175781 694.542969 Z M 438.175781 694.542969 " fill-opacity="1" fill-rule="nonzero"/></g></svg>